<svg xmlns="http://www.w3.org/2000/svg" xmlns:xlink="http://www.w3.org/1999/xlink" width="500" zoomAndPan="magnify" viewBox="0 0 375 374.999991" height="500" preserveAspectRatio="xMidYMid meet" version="1.0"><defs><clipPath id="70becd7f45"><path d="M 311.140625 282.546875 L 375 282.546875 L 375 375 L 311.140625 375 Z M 311.140625 282.546875 " clip-rule="nonzero"/></clipPath><clipPath id="41809367d2"><path d="M 165 167 L 236 167 L 236 313.738281 L 165 313.738281 Z M 165 167 " clip-rule="nonzero"/></clipPath></defs><rect x="-37.5" width="450" fill="#ffffff" y="-37.499999" height="449.999989" fill-opacity="1"/><rect x="-37.5" width="450" fill="#fdfdfe" y="-37.499999" height="449.999989" fill-opacity="1"/><g clip-path="url(#70becd7f45)"><path fill="#fdfdfe" d="M 335.171875 282.550781 C 333.441406 282.664062 333.246094 285.070312 331.542969 285.386719 C 330.636719 285.558594 329.902344 285.035156 329.058594 285.261719 C 327.925781 285.570312 326.871094 286.726562 326.554688 287.921875 C 326.507812 287.90625 326.457031 287.890625 326.425781 287.921875 C 326.398438 287.953125 326.457031 288.019531 326.425781 288.050781 C 326.367188 288.109375 326.230469 287.988281 326.167969 288.050781 C 326.136719 288.082031 326.199219 288.148438 326.167969 288.179688 C 326.109375 288.242188 325.96875 288.117188 325.910156 288.179688 C 325.878906 288.210938 325.941406 288.277344 325.910156 288.308594 C 325.863281 288.355469 325.351562 288.265625 325.261719 288.308594 C 325.207031 288.335938 325.1875 288.410156 325.132812 288.4375 C 325.128906 288.441406 325.121094 288.4375 325.117188 288.441406 C 325.273438 288.296875 325.402344 288.121094 325.453125 287.875 C 324.347656 288.136719 323.171875 289.402344 322.71875 290.734375 C 323.015625 291.519531 322.800781 291.808594 322.59375 292.597656 C 323.355469 294 325.328125 293.425781 326.449219 294.460938 C 325.5625 295.480469 324.15625 295.984375 323.339844 297.070312 C 322.34375 300.382812 319.152344 301.503906 316.503906 303.164062 C 315.550781 304.558594 313.726562 304.957031 313.769531 306.644531 C 313.808594 308.15625 316.152344 310.03125 315.261719 311.492188 C 314.367188 311.246094 313.441406 311.015625 312.902344 310.746094 L 312.902344 311.367188 C 313.78125 311.4375 315.628906 311.398438 315.511719 312.859375 L 313.769531 312.859375 C 313.765625 312.6875 313.828125 312.585938 313.894531 312.484375 C 313.417969 313.167969 311.617188 312.527344 311.410156 313.480469 C 312.375 313.476562 314.171875 312.738281 315.632812 313.230469 C 315.867188 314.199219 316.277344 314.992188 316.753906 315.714844 C 316.363281 315.65625 316.425781 316.050781 316.132812 316.089844 C 315.542969 319.117188 316.992188 321.085938 318.246094 322.675781 C 318.550781 322.695312 318.84375 322.695312 318.992188 322.550781 C 318.964844 322.910156 318.976562 323.230469 319.363281 323.175781 C 319.851562 323.050781 319.277344 322.640625 319.613281 322.429688 C 319.503906 322.949219 320.167969 322.699219 320.359375 322.925781 C 320.550781 322.746094 320.457031 322.277344 320.855469 322.304688 C 320.867188 322.5 320.839844 322.734375 321.105469 322.675781 C 321.433594 321.472656 322.132812 320.898438 323.21875 321.1875 C 321.785156 321.6875 322.179688 323.8125 323.21875 324.417969 C 322.8125 325.683594 323.382812 327.511719 324.335938 327.402344 C 323.804688 326.804688 324.109375 325.238281 324.335938 324.417969 C 324.742188 327.410156 325.539062 330.007812 327.691406 331.253906 C 327.007812 331.5625 326.382812 331.9375 325.828125 332.371094 C 326.363281 333.003906 327.691406 332.386719 328.175781 332.269531 C 328.183594 332.316406 328.191406 332.363281 328.175781 332.394531 C 328.160156 332.421875 328.125 332.433594 328.109375 332.460938 C 328.101562 332.480469 328.109375 332.503906 328.109375 332.523438 L 328.109375 332.585938 C 327.089844 334.308594 326.050781 336.394531 326.695312 338.835938 C 327.207031 340.765625 328.902344 342.644531 329.679688 344.054688 C 329.558594 342.558594 329.035156 341.464844 328.683594 340.203125 C 329.828125 341.753906 329.808594 344.464844 331.542969 345.421875 C 331.109375 344.117188 330.386719 343.097656 329.929688 341.820312 L 330.550781 341.820312 C 329.4375 340.59375 328.847656 338.230469 329.59375 336.34375 C 329.59375 336.34375 329.597656 336.347656 329.601562 336.34375 C 329.605469 336.339844 329.601562 336.328125 329.601562 336.320312 C 329.605469 336.308594 329.609375 336.292969 329.613281 336.28125 C 329.632812 336.285156 329.652344 336.292969 329.664062 336.28125 C 329.679688 336.265625 329.65625 336.234375 329.664062 336.214844 C 329.703125 336.136719 329.820312 336.097656 329.859375 336.019531 C 329.867188 336 329.847656 335.976562 329.859375 335.957031 C 329.871094 335.929688 329.949219 335.863281 330.003906 335.8125 C 329.671875 338.003906 329.71875 340.957031 331.046875 342.066406 C 331.601562 344.425781 332.199219 347.144531 333.285156 348.65625 C 333.441406 348.875 333.289062 349.5625 333.90625 349.152344 C 332.902344 347.132812 333.136719 343.394531 334.03125 341.199219 C 334.15625 341.734375 334.265625 342.222656 334.355469 342.679688 C 334.386719 342.539062 334.417969 342.394531 334.457031 342.246094 C 334.457031 342.246094 334.453125 342.238281 334.457031 342.234375 C 334.457031 342.234375 334.457031 342.234375 334.460938 342.230469 C 334.480469 342.144531 334.496094 342.0625 334.519531 341.972656 C 334.519531 341.996094 334.519531 342.007812 334.519531 342.03125 C 334.515625 342.082031 334.511719 342.132812 334.507812 342.183594 C 334.492188 342.199219 334.46875 342.210938 334.460938 342.230469 C 334.457031 342.238281 334.457031 342.242188 334.457031 342.246094 C 334.429688 342.34375 334.488281 342.464844 334.457031 342.558594 C 334.445312 342.589844 334.402344 342.597656 334.390625 342.625 C 334.378906 342.644531 334.390625 342.667969 334.390625 342.6875 L 334.390625 342.878906 C 334.605469 344.011719 334.707031 344.878906 334.738281 345.539062 C 335.277344 347.726562 336.453125 349.390625 337.136719 351.515625 C 337.339844 352.136719 337.574219 352.777344 338.007812 353.378906 C 337.082031 349.308594 336.980469 348.644531 336.980469 348.644531 C 337.457031 349.757812 337.847656 351.246094 338.128906 352.386719 C 338.625 352.132812 338.199219 350.960938 338.753906 350.769531 C 338.820312 351.820312 338.957031 352.800781 339.621094 353.253906 C 339.542969 352.621094 339.023438 351.34375 339.746094 351.019531 C 339.359375 353.136719 340.132812 354.859375 341.363281 355.742188 C 341.042969 354.402344 339.910156 353.21875 340.242188 351.640625 C 340.808594 351.894531 340.648438 353.949219 341.363281 353.253906 C 341.761719 354.265625 342.320312 355.117188 343.101562 355.742188 C 343.453125 355.546875 342.820312 355.074219 343.226562 354.871094 C 344.523438 356.160156 344.878906 358.476562 344.097656 360.589844 C 344.886719 360.21875 344.945312 359.121094 345.214844 358.226562 C 345.457031 359.722656 344.304688 360.449219 344.34375 361.335938 C 344.941406 361.511719 344.894531 360.402344 345.214844 360.714844 C 345.167969 361.371094 344.679688 361.585938 344.71875 362.328125 C 345.722656 361.757812 345.59375 360.054688 346.457031 359.34375 C 346.871094 360.332031 345.113281 361.480469 346.085938 362.203125 C 346.0625 361.4375 346.265625 360.890625 346.582031 360.464844 C 346.933594 362.277344 347.089844 364.109375 347.203125 365.808594 C 347.300781 367.273438 347.667969 368.753906 347.824219 370.285156 C 348.019531 372.1875 347.542969 374.363281 347.703125 376.375 C 347.925781 379.285156 349.121094 381.457031 347.578125 383.582031 C 347.03125 382.953125 346.441406 383.132812 345.589844 382.839844 C 345.222656 383.039062 344.699219 383.222656 344.96875 383.707031 C 345.003906 383.71875 345.023438 383.714844 345.054688 383.71875 C 345.058594 383.746094 345.0625 383.773438 345.074219 383.796875 C 345.078125 383.8125 345.097656 383.816406 345.105469 383.828125 C 345.105469 383.832031 345.105469 383.882812 345.105469 383.925781 C 345.085938 383.917969 345.066406 383.90625 345.046875 383.898438 C 344.835938 383.769531 344.632812 383.636719 344.472656 383.457031 C 344.289062 383.445312 344.117188 383.441406 343.953125 383.445312 C 343.023438 383.46875 342.359375 383.75 341.839844 384.183594 C 341.839844 384.1875 341.835938 384.183594 341.835938 384.183594 C 341.78125 384.238281 341.789062 384.234375 341.800781 384.222656 C 341.808594 384.210938 341.816406 384.195312 341.769531 384.21875 C 341.730469 384.238281 341.710938 384.296875 341.671875 384.316406 C 341.664062 384.320312 341.648438 384.308594 341.640625 384.316406 C 341.628906 384.328125 341.644531 384.351562 341.640625 384.371094 C 341.636719 384.375 341.632812 384.375 341.632812 384.378906 C 341.625 384.378906 341.613281 384.375 341.609375 384.378906 C 341.605469 384.382812 341.609375 384.394531 341.609375 384.402344 C 340.902344 385.117188 340.488281 386.128906 339.996094 387.0625 C 337.808594 387.347656 339.117188 391.390625 341.117188 390.792969 C 341.210938 391.648438 342.078125 391.734375 342.359375 392.40625 C 343.371094 392.152344 344.507812 391.878906 345.714844 392.160156 C 345.796875 391.875 345.730469 391.742188 345.644531 391.625 C 345.644531 391.625 345.648438 391.628906 345.648438 391.628906 C 345.65625 391.632812 345.707031 391.628906 345.71875 391.628906 L 346.039062 391.628906 C 346.046875 391.628906 346.054688 391.632812 346.0625 391.628906 C 346.066406 391.621094 346.054688 391.613281 346.0625 391.605469 C 346.066406 391.601562 346.078125 391.605469 346.085938 391.605469 C 346.105469 391.605469 346.1875 391.609375 346.199219 391.605469 C 346.210938 391.601562 346.210938 391.585938 346.222656 391.582031 C 346.234375 391.574219 346.257812 391.59375 346.269531 391.582031 C 346.273438 391.578125 346.261719 391.566406 346.269531 391.558594 C 346.277344 391.550781 346.304688 391.566406 346.3125 391.558594 C 346.320312 391.554688 346.308594 391.542969 346.3125 391.539062 C 346.320312 391.53125 346.332031 391.542969 346.335938 391.539062 C 346.339844 391.53125 346.332031 391.519531 346.335938 391.515625 C 346.34375 391.507812 346.375 391.523438 346.382812 391.515625 C 346.386719 391.507812 346.382812 391.5 346.382812 391.492188 C 346.390625 391.492188 346.398438 391.496094 346.40625 391.492188 C 346.414062 391.488281 346.417969 391.472656 346.429688 391.46875 C 346.433594 391.464844 346.460938 391.46875 346.480469 391.46875 C 346.609375 391.972656 347.566406 392.078125 347.828125 392.035156 C 347.824219 392.019531 347.820312 392.007812 347.816406 391.996094 L 347.847656 391.996094 C 347.855469 391.996094 347.863281 392 347.871094 391.996094 C 347.875 391.988281 347.863281 391.976562 347.871094 391.972656 C 347.875 391.964844 347.886719 391.976562 347.890625 391.972656 C 347.898438 391.964844 347.886719 391.953125 347.890625 391.949219 C 347.898438 391.945312 347.910156 391.953125 347.914062 391.949219 C 347.925781 391.945312 347.929688 391.929688 347.9375 391.925781 C 347.945312 391.921875 348.003906 391.929688 348.007812 391.925781 C 348.011719 391.921875 348 391.910156 348.007812 391.902344 C 348.011719 391.898438 348.023438 391.910156 348.03125 391.902344 C 348.035156 391.898438 348.023438 391.886719 348.03125 391.878906 C 348.035156 391.875 348.046875 391.886719 348.050781 391.878906 C 348.058594 391.875 348.046875 391.863281 348.050781 391.859375 C 348.0625 391.847656 348.089844 391.867188 348.097656 391.859375 C 348.105469 391.851562 348.09375 391.839844 348.097656 391.835938 C 348.105469 391.828125 348.117188 391.839844 348.121094 391.835938 C 348.125 391.828125 348.117188 391.816406 348.121094 391.8125 C 348.125 391.804688 348.140625 391.816406 348.144531 391.8125 C 348.148438 391.804688 348.140625 391.792969 348.144531 391.789062 C 348.148438 391.785156 348.164062 391.792969 348.167969 391.789062 C 348.179688 391.777344 348.15625 391.753906 348.167969 391.742188 C 348.171875 391.738281 348.183594 391.746094 348.191406 391.742188 C 348.195312 391.738281 348.183594 391.726562 348.191406 391.71875 C 348.195312 391.714844 348.207031 391.726562 348.214844 391.71875 C 348.21875 391.714844 348.207031 391.640625 348.214844 391.628906 C 348.21875 391.617188 348.230469 391.617188 348.234375 391.605469 C 348.238281 391.597656 348.234375 391.589844 348.234375 391.582031 L 348.234375 391.3125 C 348.3125 391.242188 348.402344 391.171875 348.570312 391.167969 C 348.621094 391.46875 348.34375 391.4375 348.445312 391.789062 C 349.753906 391.824219 350.683594 391.148438 352.175781 391.414062 C 352.570312 390.773438 353.484375 390.652344 353.917969 390.046875 C 353.753906 388.164062 354.574219 387.261719 354.859375 385.824219 C 354.859375 385.824219 354.863281 385.820312 354.863281 385.820312 C 354.867188 385.816406 354.867188 385.808594 354.863281 385.804688 C 354.863281 385.796875 354.867188 385.792969 354.867188 385.789062 C 354.871094 385.789062 354.878906 385.789062 354.878906 385.789062 C 354.882812 385.785156 354.878906 385.777344 354.878906 385.769531 L 354.878906 385.722656 C 354.789062 385.515625 354.925781 385.644531 355.035156 385.449219 C 356.191406 383.445312 356.589844 381.054688 356.648438 378.363281 C 356.65625 378.101562 356.378906 377.785156 356.402344 377.492188 C 356.46875 376.695312 357.140625 375.390625 357.398438 374.261719 C 358.035156 371.457031 358.546875 368.011719 358.886719 364.941406 C 359.613281 363.347656 360.667969 362.078125 361.375 360.464844 C 361.363281 360.847656 360.949219 361.726562 361.621094 361.707031 C 361.714844 361.136719 361.667969 360.425781 361.871094 359.96875 C 363.125 361.484375 361.171875 361.878906 360.753906 363.324219 C 360.078125 365.644531 359.789062 367.28125 361.5 369.039062 C 361.851562 369.011719 361.433594 368.726562 361.496094 368.601562 C 361.519531 368.617188 361.558594 368.582031 361.578125 368.601562 C 361.601562 368.625 361.558594 368.671875 361.578125 368.695312 C 361.601562 368.714844 361.644531 368.679688 361.671875 368.695312 C 361.78125 369.019531 361.847656 369.378906 361.871094 369.785156 C 364.613281 371.230469 367.109375 372.917969 369.453125 374.757812 C 369.464844 374.5625 369.4375 374.328125 369.703125 374.386719 C 371.804688 374.851562 375.855469 374.851562 377.035156 374.011719 C 376.972656 373.996094 376.902344 373.984375 376.835938 373.972656 C 376.839844 373.96875 376.84375 373.964844 376.847656 373.957031 C 376.851562 373.953125 376.84375 373.941406 376.847656 373.9375 C 376.851562 373.925781 376.863281 373.921875 376.871094 373.914062 C 376.875 373.90625 376.867188 373.898438 376.871094 373.890625 C 376.875 373.875 376.886719 373.859375 376.890625 373.84375 C 376.894531 373.835938 376.886719 373.828125 376.890625 373.820312 C 376.898438 373.8125 376.910156 373.808594 376.914062 373.800781 C 376.921875 373.789062 376.917969 373.773438 376.914062 373.761719 C 376.996094 373.761719 377.074219 373.765625 377.160156 373.761719 C 378.320312 372.628906 379.886719 371.632812 380.269531 369.414062 C 380.203125 369.410156 380.160156 369.378906 380.121094 369.347656 C 380.121094 369.332031 380.121094 369.296875 380.121094 369.289062 C 380.113281 369.28125 380.101562 369.277344 380.097656 369.265625 C 380.089844 369.253906 380.105469 369.230469 380.097656 369.222656 C 380.089844 369.214844 380.078125 369.226562 380.074219 369.222656 C 380.070312 369.214844 380.078125 369.207031 380.074219 369.199219 C 380.070312 369.1875 380.054688 369.183594 380.050781 369.175781 C 380.042969 369.164062 380.058594 369.140625 380.050781 369.128906 C 380.046875 369.121094 380.03125 369.117188 380.027344 369.105469 C 380.019531 369.089844 380.035156 369 380.027344 368.992188 C 380.023438 368.988281 380.011719 368.996094 380.003906 368.992188 C 379.992188 368.980469 380.015625 368.933594 380.003906 368.921875 C 380 368.917969 379.988281 368.929688 379.980469 368.921875 C 379.972656 368.914062 379.992188 368.886719 379.980469 368.878906 C 379.976562 368.871094 379.964844 368.882812 379.960938 368.878906 C 379.957031 368.875 379.960938 368.867188 379.960938 368.863281 C 380.019531 368.882812 380.058594 368.890625 380.144531 368.917969 C 379.910156 368.324219 379.859375 367.542969 379.148438 367.425781 C 379 367.835938 378.382812 367.636719 378.277344 367.300781 C 378.492188 367.308594 378.597656 367.207031 378.652344 367.054688 C 377.738281 365.722656 374.339844 365.832031 372.933594 366.679688 C 372.035156 366.378906 371.449219 365.761719 370.074219 365.933594 C 368.289062 363.089844 374.054688 360.492188 374.550781 358.105469 C 374.449219 358.097656 374.355469 358.085938 374.269531 358.070312 C 374.269531 358.054688 374.269531 358.042969 374.269531 358.03125 C 374.289062 358.03125 374.320312 358.046875 374.332031 358.03125 C 374.347656 358.015625 374.320312 357.980469 374.332031 357.964844 C 374.363281 357.9375 374.425781 357.984375 374.464844 357.964844 C 374.476562 357.960938 374.523438 357.90625 374.558594 357.871094 C 376.234375 358.308594 378.722656 356.726562 381.015625 357.109375 C 381.230469 357.035156 381.007812 356.519531 381.265625 356.488281 C 382.554688 357.023438 384.371094 356.515625 385.492188 356.113281 C 385.40625 355.871094 384.796875 356.144531 384.746094 355.867188 C 385.246094 355.78125 385.457031 355.984375 385.863281 355.988281 C 387.296875 354.691406 390.304688 354.871094 392.203125 354.621094 C 392.242188 354.957031 391.683594 355.332031 392.078125 355.617188 C 392.230469 355.140625 392.753906 354.390625 393.199219 354.621094 C 393.09375 354.933594 392.855469 355.109375 392.824219 355.492188 C 392.996094 357.851562 393.652344 359.71875 394.5625 361.335938 C 394.796875 361.351562 394.980469 361.414062 395.0625 361.582031 C 396.113281 365.375 397.667969 368.671875 401.648438 369.539062 C 402.851562 372.105469 405.304688 373.425781 407.617188 374.882812 C 407.554688 376.0625 408.726562 376.007812 409.230469 376.621094 C 409.464844 379.671875 409.363281 383.875 405.75 383.832031 C 405.472656 383.53125 405.183594 383.238281 404.878906 382.960938 C 403.914062 382.949219 403.191406 383.175781 402.394531 383.335938 C 402.277344 383.566406 402.765625 383.75 402.394531 383.832031 C 400.574219 382.886719 398.21875 384.800781 398.914062 386.691406 C 398.234375 386.976562 397.859375 387.671875 398.292969 388.429688 C 397.933594 388.609375 397.394531 388.609375 397.421875 389.175781 C 397.683594 389.476562 397.976562 389.066406 398.167969 389.300781 C 398.230469 390.148438 399.054688 390.234375 399.660156 390.542969 C 399.953125 390.503906 399.734375 389.953125 400.15625 390.046875 C 399.898438 390.320312 400.058594 390.875 400.28125 391.039062 C 400.644531 391.046875 400.980469 391.03125 401.152344 390.851562 C 401.167969 390.851562 401.1875 390.847656 401.199219 390.851562 C 401.226562 390.867188 401.238281 390.902344 401.265625 390.917969 C 401.304688 390.9375 401.363281 390.886719 401.394531 390.917969 C 401.410156 390.933594 401.378906 390.96875 401.394531 390.980469 C 401.402344 390.992188 401.464844 390.988281 401.527344 390.980469 C 401.378906 391.066406 401.277344 391.226562 401.277344 391.535156 C 402.039062 391.609375 404.128906 392.136719 405.121094 391.046875 C 405.128906 391.046875 405.136719 391.046875 405.144531 391.046875 C 405.390625 391.125 405.535156 391.390625 405.75 391.164062 C 405.738281 391.066406 405.710938 390.992188 405.6875 390.917969 L 406.054688 390.917969 C 406.070312 390.917969 406.085938 390.917969 406.101562 390.917969 C 406.109375 390.957031 406.117188 390.992188 406.121094 391.039062 C 407.679688 390.980469 409.109375 390.796875 410.597656 390.667969 C 410.652344 390.546875 410.726562 390.441406 410.796875 390.335938 C 410.84375 390.335938 410.910156 390.335938 410.910156 390.335938 C 410.925781 390.320312 410.894531 390.285156 410.910156 390.269531 C 410.933594 390.25 411.019531 390.292969 411.039062 390.269531 C 411.054688 390.253906 411.023438 390.222656 411.039062 390.207031 C 411.054688 390.191406 411.085938 390.214844 411.105469 390.207031 C 411.375 390.070312 411.035156 390.210938 411.167969 390.074219 C 411.183594 390.0625 411.21875 390.089844 411.234375 390.074219 C 411.25 390.0625 411.21875 390.027344 411.234375 390.011719 C 411.25 389.996094 411.285156 390.027344 411.300781 390.011719 C 411.328125 389.980469 411.269531 389.914062 411.300781 389.882812 C 411.3125 389.867188 411.347656 389.898438 411.363281 389.882812 C 411.394531 389.851562 411.332031 389.78125 411.363281 389.753906 C 411.363281 389.75 411.367188 389.753906 411.371094 389.753906 C 411.425781 389.867188 411.515625 389.953125 411.714844 389.921875 C 411.730469 389.675781 411.792969 389.496094 411.871094 389.300781 L 412.011719 389.300781 C 412.027344 389.300781 412.046875 389.300781 412.0625 389.300781 C 412.027344 389.339844 412 389.382812 411.960938 389.421875 C 412.058594 389.824219 412.304688 390.070312 412.707031 390.167969 C 412.902344 389.90625 413.144531 389.691406 413.453125 389.546875 C 413.445312 388.777344 413.582031 387.65625 413.082031 388.054688 C 412.949219 387.589844 413.546875 387.859375 413.453125 387.433594 C 414.648438 384.113281 417.492188 382.441406 418.796875 379.230469 C 419.570312 378.347656 420.039062 377.15625 420.785156 376.246094 C 420.703125 375.222656 421.011719 374.554688 420.664062 373.882812 C 417.929688 371.945312 415.457031 368.25 413.703125 365.058594 C 413.453125 364.605469 413.074219 363.960938 412.957031 363.441406 C 412.917969 363.28125 413.210938 363.222656 413.203125 363.070312 C 413.183594 362.640625 412.699219 362.117188 412.957031 361.703125 C 413.238281 361.738281 413.421875 361.671875 413.453125 361.453125 C 413.269531 361.347656 413.1875 361.140625 413.207031 360.832031 C 414.8125 359.246094 416.527344 357.773438 417.804688 355.859375 C 419.667969 357.640625 422.019531 358.9375 424.890625 359.714844 C 425.21875 360.253906 425.589844 360.753906 426.382812 360.832031 C 427.894531 362.097656 428.953125 363.984375 430.605469 365.183594 C 432.484375 366.542969 434.984375 367.144531 437.070312 368.414062 C 437.253906 368.449219 437.480469 368.28125 437.640625 368.230469 C 437.648438 368.234375 437.65625 368.230469 437.660156 368.234375 C 437.683594 368.257812 437.636719 368.304688 437.660156 368.328125 C 437.691406 368.359375 437.753906 368.324219 437.800781 368.316406 C 437.742188 368.453125 437.535156 368.441406 437.441406 368.539062 C 438.488281 370.355469 440.425781 371.273438 441.917969 372.640625 C 442.96875 373.671875 442.550781 375.226562 443.160156 376.367188 C 443.417969 376.855469 444.089844 376.839844 444.652344 377.363281 C 445.648438 378.296875 445.507812 379.824219 446.640625 380.222656 C 447.003906 381.019531 447.761719 382.082031 447.386719 383.207031 C 447.03125 382.984375 446.804688 382.625 446.144531 382.707031 C 445.921875 382.851562 445.578125 383.136719 445.894531 383.453125 C 446.007812 383.5 446.078125 383.503906 446.128906 383.488281 L 446.128906 383.539062 C 446.148438 383.539062 446.128906 383.625 446.128906 383.601562 L 446.128906 383.859375 C 446.148438 383.859375 446.128906 383.949219 446.128906 383.925781 L 446.128906 383.859375 C 446.085938 383.859375 446.160156 383.960938 446.128906 383.992188 C 446.113281 384.007812 446.078125 383.976562 446.0625 383.992188 C 446.058594 383.992188 446.0625 383.996094 446.0625 384 C 445.910156 383.890625 445.738281 383.84375 445.554688 383.859375 C 444.742188 383.925781 443.742188 385.058594 443.410156 385.695312 C 443.417969 386.144531 443.722656 386.296875 443.785156 386.691406 C 443.277344 387.054688 442.835938 387.480469 442.914062 388.429688 C 442.960938 388.46875 443.023438 388.492188 443.085938 388.511719 C 443.085938 388.605469 443.082031 388.707031 443.085938 388.714844 C 443.097656 388.742188 443.136719 388.753906 443.148438 388.78125 C 443.160156 388.800781 443.140625 388.828125 443.148438 388.847656 C 443.164062 388.875 443.199219 388.882812 443.214844 388.910156 C 443.234375 388.949219 443.183594 389.007812 443.214844 389.039062 C 443.230469 389.054688 443.265625 389.023438 443.277344 389.039062 C 443.285156 389.042969 443.277344 389.058594 443.277344 389.066406 C 443.015625 389.355469 442.910156 389.714844 443.039062 390.171875 C 443.964844 390.613281 445.242188 391.324219 446.375 391.164062 C 446.378906 391.167969 446.382812 391.175781 446.386719 391.175781 C 446.40625 391.1875 446.550781 391.175781 446.582031 391.175781 L 446.96875 391.175781 C 446.96875 391.15625 447.054688 391.175781 447.035156 391.175781 C 447.0625 391.164062 447.070312 391.125 447.097656 391.113281 C 447.113281 391.105469 447.125 391.109375 447.140625 391.113281 C 447.140625 391.128906 447.140625 391.144531 447.140625 391.164062 C 448.882812 390.875 449.601562 389.984375 451.117188 390.292969 C 451.167969 390.058594 451.164062 389.757812 451.492188 389.796875 C 451.546875 390.03125 451.320312 390.546875 451.738281 390.417969 C 451.925781 389.886719 452.433594 389.679688 452.644531 389.167969 L 452.730469 389.167969 C 452.753906 389.167969 452.78125 389.183594 452.796875 389.167969 C 452.8125 389.15625 452.78125 389.121094 452.796875 389.105469 C 452.820312 389.082031 452.890625 389.101562 452.941406 389.105469 C 452.847656 389.296875 452.808594 389.523438 452.855469 389.796875 C 453.515625 389.832031 453.230469 388.929688 453.851562 388.925781 C 453.832031 389.234375 453.824219 389.527344 454.097656 389.546875 C 454.710938 388.683594 455.769531 388.613281 455.960938 387.558594 C 456.3125 385.664062 453.640625 383.96875 454.472656 382.089844 C 453.507812 381.601562 454.027344 379.632812 453.476562 378.734375 C 454.148438 374.988281 452.671875 370.953125 449.972656 370.019531 C 449.957031 370.003906 449.945312 369.984375 449.929688 369.976562 C 449.902344 369.960938 449.867188 369.976562 449.835938 369.976562 C 449.804688 369.945312 449.785156 369.902344 449.746094 369.882812 C 449.71875 369.871094 449.679688 369.898438 449.652344 369.882812 C 449.546875 369.828125 449.488281 369.667969 449.382812 369.613281 C 448.328125 368.355469 446.542969 367.378906 446.265625 365.804688 C 444.949219 365.136719 444.648438 363.449219 443.65625 362.449219 C 442.355469 356.578125 440.015625 352.339844 438.0625 347.285156 C 438.105469 343.460938 435.632812 340.699219 434.460938 337.34375 C 436.855469 337.886719 439.34375 337.597656 441.792969 338.335938 C 443.5 338.140625 445.433594 338.203125 447.011719 338.214844 C 447.378906 337.796875 447.964844 337.699219 448.503906 337.589844 C 451.785156 336.933594 454.523438 335.585938 457.082031 333.988281 C 457.949219 332.984375 458.691406 331.210938 459.566406 330.632812 C 459.761719 329.066406 460.484375 327.476562 460.5625 325.660156 C 460.859375 318.742188 453.941406 312.59375 448.253906 311.242188 C 446.601562 310.847656 444.992188 310.910156 443.65625 309.75 C 442.730469 309.808594 442.5 309.585938 441.667969 309.375 C 441.621094 309.589844 441.851562 309.695312 441.667969 309.75 C 441.039062 309.261719 439.503906 309.542969 439.554688 309.003906 C 438.632812 309.355469 436.957031 308.558594 436.324219 309.003906 C 436.398438 309.21875 436.914062 308.992188 436.945312 309.253906 C 434.5 309.664062 432.746094 310.769531 431.105469 311.988281 C 431.375 311.996094 431.90625 311.644531 431.972656 311.863281 C 430.59375 313.007812 429.140625 314.082031 427.871094 315.34375 C 428.109375 315.335938 428.386719 315.238281 428.6875 315.109375 C 428.691406 315.117188 428.695312 315.128906 428.6875 315.136719 C 428.675781 315.144531 428.652344 315.125 428.640625 315.136719 C 428.628906 315.144531 428.652344 315.171875 428.640625 315.183594 C 428.621094 315.203125 428.570312 315.160156 428.550781 315.183594 C 428.539062 315.191406 428.5625 315.214844 428.550781 315.226562 C 428.539062 315.238281 428.515625 315.214844 428.503906 315.226562 C 428.496094 315.238281 428.515625 315.261719 428.503906 315.273438 C 428.496094 315.285156 428.46875 315.261719 428.457031 315.273438 C 428.449219 315.285156 428.46875 315.308594 428.457031 315.316406 C 428.4375 315.339844 428.390625 315.296875 428.367188 315.316406 C 428.355469 315.328125 428.375 315.351562 428.367188 315.363281 C 428.359375 315.382812 428.332031 315.390625 428.320312 315.410156 C 428.3125 315.425781 428.320312 315.441406 428.320312 315.457031 L 428.320312 315.671875 C 427.726562 315.777344 427.1875 315.945312 427.128906 316.585938 C 427.339844 316.480469 427.613281 316.375 427.910156 316.28125 C 427.925781 316.273438 427.9375 316.269531 427.953125 316.265625 C 427.957031 316.269531 427.957031 316.277344 427.953125 316.28125 C 427.945312 316.292969 427.921875 316.269531 427.910156 316.28125 C 427.898438 316.292969 427.917969 316.3125 427.910156 316.324219 C 427.898438 316.34375 427.875 316.351562 427.863281 316.371094 C 427.851562 316.398438 427.886719 316.441406 427.863281 316.464844 C 427.851562 316.472656 427.828125 316.453125 427.816406 316.464844 C 427.808594 316.472656 427.828125 316.5 427.816406 316.507812 C 427.808594 316.519531 427.785156 316.5 427.773438 316.507812 C 427.769531 316.527344 427.765625 316.554688 427.773438 316.554688 C 427.785156 316.554688 427.761719 316.519531 427.773438 316.507812 C 427.773438 316.480469 427.773438 316.464844 427.726562 316.554688 C 427.71875 316.574219 427.734375 316.683594 427.726562 316.691406 C 427.714844 316.703125 427.691406 316.679688 427.679688 316.691406 C 427.664062 316.707031 427.664062 316.71875 427.667969 316.722656 C 427.109375 316.757812 426.804688 316.8125 426.632812 317.457031 C 427.058594 317.234375 427.632812 317.164062 427.859375 316.738281 L 428.042969 316.738281 C 428.101562 316.957031 428.089844 317.03125 428 317.332031 C 427.390625 317.632812 426.46875 317.625 426.257812 318.328125 C 427.667969 317.746094 428.390625 317.09375 430.359375 317.582031 C 430.15625 318.148438 430.964844 317.972656 430.609375 318.328125 C 437.585938 320.269531 439.410156 314.441406 445.648438 314.472656 C 446.183594 313.992188 447.382812 314.070312 448.382812 314.347656 C 451.832031 315.3125 456.980469 320.152344 457.457031 324.789062 C 457.730469 327.441406 456.078125 329.832031 454.722656 330.878906 C 453.550781 331.785156 451.597656 332.621094 450.121094 332.871094 C 449.300781 333.007812 448.269531 332.847656 447.390625 332.992188 C 446.289062 333.175781 445.222656 333.417969 443.910156 333.242188 C 439.878906 332.707031 437.046875 330.359375 433.964844 328.519531 C 428.296875 325.132812 422.460938 321.734375 416.9375 319.445312 L 416.9375 319.074219 C 414.269531 319.144531 411.816406 318.03125 409.230469 317.582031 C 405.285156 316.890625 401.21875 316.644531 396.550781 317.082031 C 393.101562 317.40625 388.914062 317.871094 385.488281 318.078125 C 382.917969 318.234375 378.921875 318.328125 377.410156 316.960938 C 377.335938 316.894531 377.621094 316.71875 377.535156 316.585938 C 376.949219 315.707031 375.730469 315.285156 374.425781 315.21875 C 374.855469 314.945312 375.699219 315.136719 376.167969 315.21875 C 376.1875 314.535156 375.152344 314.910156 374.800781 314.597656 C 375.078125 314.292969 375.703125 313.21875 374.925781 312.980469 C 375.0625 313.328125 375.152344 314.035156 374.675781 314.101562 C 375.230469 312.476562 373.34375 311.804688 373.308594 310.746094 C 373.097656 310.496094 372.738281 310.402344 372.4375 310.246094 C 372.136719 308.695312 369.457031 308.539062 368.835938 309.875 C 369.683594 309.019531 371.800781 309.269531 371.941406 310.246094 C 371.539062 310.175781 371.363281 310.332031 371.070312 310.371094 C 370.570312 309.238281 369.066406 309.984375 368.210938 310.246094 C 368.148438 310.0625 368.027344 309.933594 367.964844 309.75 C 369.214844 309.265625 371.300781 307.5625 372.3125 309.375 C 371.84375 306.148438 368.195312 309.816406 366.347656 309.875 C 366.28125 309.691406 366.164062 309.5625 366.097656 309.375 C 366.382812 309.207031 366.566406 309.699219 366.597656 309.375 C 366.410156 309.230469 366.085938 309.222656 365.972656 309.003906 C 366.394531 309.046875 367.226562 309.320312 367.589844 309.003906 C 366.824219 308.691406 368.523438 308.921875 368.335938 308.382812 C 366.820312 308.738281 364.484375 308.796875 364.359375 307.386719 C 365.125 308.265625 367.949219 308.789062 368.710938 307.511719 C 367.628906 307.816406 365.945312 308.183594 365.105469 307.386719 C 366.613281 307.941406 367.699219 307.027344 369.082031 306.765625 C 367.410156 306.832031 364.570312 308.300781 364.359375 305.523438 C 364.605469 305.527344 364.515625 305.863281 364.855469 305.773438 C 365.382812 304.464844 366.511719 303.773438 366.097656 302.292969 C 365.761719 301.085938 364.578125 300.902344 363.613281 300.179688 C 363.683594 300.171875 363.746094 300.15625 363.816406 300.144531 L 363.855469 300.144531 C 363.859375 300.144531 363.863281 300.144531 363.867188 300.144531 C 363.875 300.140625 363.882812 300.132812 363.890625 300.132812 C 363.972656 300.113281 363.832031 300.167969 363.949219 300.121094 C 363.949219 300.121094 363.949219 300.121094 363.953125 300.121094 C 364.667969 299.851562 365.171875 299.453125 365.460938 298.960938 C 365.964844 298.792969 366.4375 298.871094 366.84375 299.683594 C 366.871094 299.199219 366.578125 299.039062 366.472656 298.6875 C 365.257812 298.015625 364.59375 299.214844 363.613281 299.308594 C 360.285156 299.632812 361.625 296.007812 359.882812 293.839844 C 360.101562 293.949219 360.269531 294.253906 360.382812 293.839844 C 359.628906 292.332031 358.542969 291.15625 356.910156 290.527344 C 356.90625 290.519531 356.910156 290.535156 356.902344 290.511719 C 356.890625 290.472656 356.921875 290.515625 356.886719 290.476562 C 356.882812 290.472656 356.890625 290.464844 356.886719 290.460938 C 356.878906 290.449219 356.863281 290.441406 356.855469 290.429688 C 356.851562 290.425781 356.859375 290.417969 356.855469 290.414062 C 356.847656 290.398438 356.832031 290.394531 356.820312 290.378906 C 356.820312 290.375 356.824219 290.367188 356.820312 290.363281 C 356.820312 290.355469 356.808594 290.355469 356.804688 290.347656 C 356.804688 290.34375 356.808594 290.335938 356.804688 290.332031 C 356.773438 290.265625 356.808594 290.347656 356.773438 290.316406 C 356.769531 290.3125 356.777344 290.304688 356.773438 290.300781 C 356.769531 290.292969 356.761719 290.289062 356.757812 290.28125 C 357.015625 290.355469 357.246094 290.421875 357.398438 290.484375 C 357.230469 289.449219 355.765625 289.714844 355.035156 289.242188 C 355.363281 289.277344 355.570312 289.195312 355.535156 288.867188 C 355.019531 288.726562 354.117188 289.164062 353.171875 288.992188 C 352.183594 288.53125 352.214844 287.050781 351.183594 286.628906 C 350.261719 284.144531 345.460938 283.269531 343.261719 285.039062 C 343.265625 285.003906 343.28125 284.964844 343.257812 284.941406 C 343.230469 284.910156 343.167969 284.960938 343.128906 284.941406 C 343.074219 284.914062 343.054688 284.839844 343 284.8125 C 342.964844 284.792969 342.910156 284.832031 342.878906 284.8125 C 343.585938 284.519531 344.234375 284.164062 344.96875 283.898438 C 344.84375 283.617188 344.289062 284.164062 344.097656 283.773438 C 344.390625 283.617188 344.992188 283.363281 344.71875 283.027344 C 344.078125 283.625 343.289062 284.085938 342.417969 284.308594 C 342.417969 284.300781 342.421875 284.296875 342.417969 284.296875 C 342.410156 284.289062 342.394531 284.300781 342.386719 284.296875 C 342.371094 284.289062 342.363281 284.273438 342.351562 284.261719 C 342.34375 284.25 342.335938 284.238281 342.320312 284.230469 C 342.3125 284.226562 342.296875 284.238281 342.289062 284.230469 C 342.28125 284.222656 342.296875 284.207031 342.289062 284.199219 C 342.28125 284.191406 342.265625 284.203125 342.257812 284.199219 C 342.242188 284.191406 342.238281 284.175781 342.226562 284.167969 C 342.894531 284.136719 343.464844 283.816406 343.851562 282.902344 C 343.042969 283.128906 342.320312 283.753906 341.363281 283.648438 C 340.898438 283.597656 340.664062 283.191406 340.246094 283.027344 C 339.53125 282.75 338.835938 282.617188 338.175781 282.625 C 336.804688 282.644531 335.605469 283.28125 334.785156 284.457031 L 334.648438 284.457031 C 334.640625 284.457031 334.625 284.453125 334.617188 284.457031 C 334.601562 284.464844 334.597656 284.484375 334.585938 284.488281 C 334.566406 284.5 334.539062 284.480469 334.519531 284.488281 C 334.976562 283.835938 335.503906 283.25 336.019531 282.652344 C 335.699219 282.5625 335.421875 282.53125 335.171875 282.550781 Z M 447.035156 391.179688 L 446.96875 391.179688 C 446.96875 391.199219 447.015625 391.1875 447.035156 391.179688 Z M 446.128906 383.605469 L 446.128906 383.539062 C 446.105469 383.539062 446.128906 383.582031 446.128906 383.605469 Z M 334.738281 345.539062 C 334.609375 345.019531 334.519531 344.472656 334.480469 343.882812 C 334.46875 343.875 334.460938 343.867188 334.453125 343.855469 C 334.433594 343.816406 334.484375 343.757812 334.453125 343.726562 C 334.4375 343.710938 334.40625 343.742188 334.390625 343.726562 C 334.375 343.710938 334.390625 343.683594 334.390625 343.660156 L 334.390625 342.882812 C 334.375 342.8125 334.367188 342.753906 334.351562 342.679688 C 333.441406 346.800781 334.890625 348.648438 334.738281 345.539062 Z M 335.230469 284.355469 C 335.230469 284.355469 335.230469 284.359375 335.230469 284.363281 C 335.230469 284.363281 335.222656 284.359375 335.21875 284.363281 C 335.222656 284.359375 335.226562 284.355469 335.230469 284.355469 Z M 315.632812 313.851562 C 314.285156 313.996094 312.960938 314.164062 312.527344 315.222656 C 313.535156 314.738281 314.613281 314.328125 315.632812 313.851562 Z M 428.089844 316.222656 C 428.089844 316.226562 428.09375 316.234375 428.089844 316.238281 C 428.082031 316.242188 428.0625 316.238281 428.046875 316.238281 C 428.0625 316.230469 428.074219 316.226562 428.089844 316.222656 Z M 327.441406 335.109375 C 327.414062 336.722656 327.871094 338.449219 328.0625 340.203125 C 327.375 339.019531 326.851562 336.800781 327.441406 335.109375 Z M 444.125 386.128906 C 444.144531 386.132812 444.171875 386.113281 444.183594 386.128906 C 444.195312 386.140625 444.1875 386.160156 444.183594 386.175781 C 444.175781 386.179688 444.164062 386.1875 444.15625 386.195312 C 444.148438 386.171875 444.132812 386.152344 444.125 386.128906 Z M 444.125 386.128906 " fill-opacity="1" fill-rule="evenodd"/></g><path fill="#231f20" d="M 114.324219 189.367188 C 112.664062 187.503906 111.929688 184.992188 112.222656 182.515625 L 112.234375 182.4375 C 112.285156 182.011719 112.449219 181.613281 112.710938 181.28125 C 114.820312 178.589844 116.15625 176.3125 116.15625 176.3125 C 104.460938 180.765625 87.753906 164.605469 87.753906 164.605469 C 87.753906 164.605469 87.535156 165.335938 87.441406 166.6875 L 87.4375 166.648438 C 87.4375 166.648438 86.863281 168.375 86.742188 170.753906 C 86.730469 170.976562 86.664062 171.191406 86.542969 171.375 L 86.542969 171.378906 C 86.160156 172.03125 85.777344 172.816406 85.503906 173.703125 C 85.375 174.148438 85.214844 174.625 85.140625 175.109375 C 85.09375 175.355469 85.050781 175.605469 85.007812 175.863281 C 84.957031 176.117188 84.9375 176.375 84.917969 176.636719 C 84.894531 176.898438 84.875 177.164062 84.859375 177.4375 L 84.855469 177.46875 C 84.851562 177.683594 84.84375 178.035156 84.839844 178.25 C 84.84375 178.523438 84.847656 178.800781 84.859375 179.078125 C 84.875 179.355469 84.863281 179.648438 84.902344 179.921875 C 84.964844 180.480469 85.039062 181.042969 85.117188 181.621094 C 85.210938 182.1875 85.34375 182.746094 85.472656 183.316406 C 85.59375 183.890625 85.761719 184.445312 85.945312 184.996094 C 86.035156 185.277344 86.121094 185.550781 86.214844 185.832031 L 86.460938 186.5625 C 86.640625 187.078125 86.820312 187.59375 87.015625 188.101562 L 87.15625 188.480469 L 87.269531 188.824219 C 87.34375 189.050781 87.410156 189.273438 87.488281 189.496094 C 87.644531 189.941406 87.804688 190.378906 87.929688 190.847656 C 88 191.074219 88.070312 191.300781 88.140625 191.527344 C 88.210938 191.753906 88.292969 191.980469 88.339844 192.203125 C 88.453125 192.644531 88.578125 193.085938 88.699219 193.515625 C 88.789062 193.945312 88.886719 194.367188 88.992188 194.78125 C 89.066406 195.195312 89.140625 195.597656 89.222656 195.996094 C 89.277344 196.386719 89.324219 196.769531 89.386719 197.144531 C 89.421875 197.519531 89.453125 197.878906 89.484375 198.222656 C 89.496094 198.5625 89.511719 198.898438 89.519531 199.207031 C 89.515625 199.835938 89.488281 200.402344 89.429688 200.871094 C 89.378906 201.34375 89.300781 201.722656 89.238281 201.984375 C 89.179688 202.246094 89.128906 202.386719 89.128906 202.386719 C 89.128906 202.386719 89.269531 202.335938 89.511719 202.183594 C 89.628906 202.109375 89.78125 202.011719 89.9375 201.882812 C 90.019531 201.816406 90.109375 201.746094 90.199219 201.667969 C 90.285156 201.585938 90.375 201.496094 90.46875 201.40625 C 90.855469 201.027344 91.261719 200.515625 91.667969 199.875 C 91.871094 199.554688 92.035156 199.199219 92.238281 198.816406 C 92.367188 198.527344 92.492188 198.214844 92.613281 197.894531 C 93.933594 199.355469 95.757812 200.683594 98.285156 201.632812 C 98.285156 201.632812 94.332031 198.320312 93.945312 192.976562 L 93.957031 192.972656 C 94.523438 192.597656 95.285156 192.75 95.664062 193.3125 C 95.949219 193.742188 96.253906 194.167969 96.574219 194.59375 C 96.621094 194.707031 96.671875 194.820312 96.722656 194.933594 C 96.921875 195.359375 97.125 195.78125 97.296875 196.234375 C 97.390625 196.453125 97.480469 196.671875 97.574219 196.890625 C 97.664062 197.109375 97.769531 197.324219 97.835938 197.539062 C 97.992188 197.972656 98.160156 198.398438 98.320312 198.816406 C 98.453125 199.234375 98.59375 199.644531 98.738281 200.046875 C 98.851562 200.449219 98.964844 200.84375 99.085938 201.230469 C 99.179688 201.613281 99.265625 201.988281 99.363281 202.359375 C 99.433594 202.726562 99.503906 203.082031 99.566406 203.421875 C 99.613281 203.757812 99.660156 204.085938 99.695312 204.402344 C 99.753906 205.023438 99.78125 205.589844 99.769531 206.058594 C 99.765625 206.539062 99.722656 206.921875 99.691406 207.1875 C 99.65625 207.457031 99.621094 207.601562 99.621094 207.601562 C 99.621094 207.601562 99.757812 207.535156 99.980469 207.363281 C 100.09375 207.277344 100.234375 207.164062 100.375 207.019531 C 100.449219 206.945312 100.53125 206.867188 100.613281 206.78125 C 100.691406 206.691406 100.773438 206.59375 100.859375 206.492188 C 101.207031 206.078125 101.558594 205.527344 101.898438 204.851562 C 102.070312 204.515625 102.199219 204.140625 102.363281 203.742188 C 102.496094 203.34375 102.621094 202.914062 102.738281 202.460938 C 102.824219 202.011719 102.914062 201.535156 102.984375 201.035156 C 102.996094 200.921875 103.003906 200.800781 103.011719 200.683594 C 105.039062 202.0625 107.394531 203.300781 110.140625 204.332031 C 110.140625 204.332031 107.613281 202.21875 105.1875 198.4375 C 103.695312 196.109375 104.160156 193.039062 106.230469 191.210938 L 106.296875 191.214844 C 106.363281 191.316406 106.433594 191.414062 106.503906 191.507812 C 106.707031 191.78125 106.917969 192.046875 107.109375 192.347656 C 107.304688 192.632812 107.527344 192.914062 107.710938 193.195312 C 107.890625 193.476562 108.085938 193.753906 108.273438 194.023438 C 108.4375 194.300781 108.613281 194.566406 108.792969 194.832031 C 108.945312 195.09375 109.097656 195.355469 109.261719 195.609375 C 109.402344 195.867188 109.535156 196.117188 109.679688 196.363281 C 109.800781 196.609375 109.921875 196.851562 110.042969 197.085938 C 110.148438 197.332031 110.25 197.558594 110.34375 197.773438 C 110.523438 198.210938 110.667969 198.625 110.765625 198.976562 C 110.871094 199.332031 110.929688 199.628906 110.964844 199.839844 C 111 200.050781 111.007812 200.171875 111.007812 200.171875 C 111.007812 200.171875 111.113281 200.109375 111.28125 199.957031 C 111.367188 199.878906 111.46875 199.78125 111.574219 199.652344 C 111.625 199.59375 111.6875 199.523438 111.742188 199.445312 C 111.796875 199.371094 111.855469 199.285156 111.914062 199.199219 C 112.160156 198.84375 112.390625 198.378906 112.59375 197.808594 C 112.699219 197.527344 112.765625 197.222656 112.855469 196.890625 C 112.921875 196.5625 112.972656 196.214844 113.015625 195.84375 C 113.03125 195.632812 113.039062 195.40625 113.046875 195.179688 C 116.710938 196.765625 121.367188 197.523438 127.121094 196.269531 C 127.121094 196.269531 119.652344 195.347656 114.324219 189.367188 " fill-opacity="1" fill-rule="nonzero"/><g clip-path="url(#41809367d2)"><path fill="#231f20" d="M 208.777344 234.386719 C 246.367188 191.929688 233.890625 167.324219 233.890625 167.324219 C 226.335938 198.527344 191.824219 224.066406 191.824219 224.066406 C 134.28125 268.90625 187.855469 313.75 187.855469 313.75 C 187.855469 313.75 171.1875 276.84375 208.777344 234.386719 " fill-opacity="1" fill-rule="nonzero"/></g><path fill="#231f20" d="M 208.777344 195.101562 C 248.351562 147.882812 208.777344 136.375 208.777344 136.375 C 227.167969 160.4375 203.613281 183.742188 203.613281 183.742188 C 220.933594 138.800781 186.679688 141.941406 186.679688 141.941406 C 203.085938 163.105469 185.09375 165.75 148.582031 210.195312 C 112.070312 254.640625 165.179688 308.078125 165.179688 308.078125 C 142.621094 237.707031 169.203125 242.320312 208.777344 195.101562 " fill-opacity="1" fill-rule="nonzero"/><path fill="#231f20" d="M 141.175781 209.136719 C 98.84375 241.414062 141.175781 288.503906 141.175781 288.503906 C 121.066406 248.289062 141.175781 209.136719 141.175781 209.136719 " fill-opacity="1" fill-rule="nonzero"/><path fill="#231f20" d="M 163.664062 75.539062 C 140.71875 77.472656 135.6875 96.875 134.984375 100.238281 C 138.339844 99.097656 142.351562 98.335938 147.101562 98.269531 C 148.972656 82.128906 163.664062 75.539062 163.664062 75.539062 " fill-opacity="1" fill-rule="nonzero"/><path fill="#231f20" d="M 233.246094 114.957031 C 253.355469 115.488281 281.398438 139.824219 281.398438 139.824219 C 281.398438 139.824219 282.457031 136.652344 261.027344 117.074219 C 239.597656 97.496094 192.238281 98.820312 192.238281 98.820312 C 222.398438 90.621094 232.980469 101.730469 254.941406 106.226562 C 276.902344 110.726562 281.398438 90.882812 281.398438 90.882812 C 281.398438 90.882812 256.527344 98.554688 231.660156 87.972656 C 206.789062 77.390625 188.003906 89.03125 188.003906 89.03125 C 196.011719 88.269531 202.820312 90.355469 202.820312 90.355469 C 188.003906 89.03125 169.484375 99.351562 169.484375 99.351562 C 195.941406 69.71875 227.425781 82.152344 227.425781 82.152344 C 227.425781 82.152344 241.449219 90.882812 248.589844 89.03125 C 255.734375 87.179688 261.820312 77.390625 261.820312 77.390625 C 247.53125 80.566406 236.15625 78.1875 236.15625 78.1875 C 236.15625 78.1875 207.054688 60.992188 181.390625 69.984375 C 159.269531 77.738281 149.730469 93.941406 147.515625 98.265625 C 147.597656 98.265625 147.675781 98.261719 147.753906 98.261719 C 151.179688 98.261719 154.851562 98.625 158.675781 99.339844 L 158.726562 99.339844 C 160.683594 99.339844 166.480469 99.617188 170.035156 102.703125 C 170.445312 102.835938 170.851562 102.976562 171.257812 103.117188 C 174.378906 101.859375 180.398438 99.785156 186.199219 99.785156 C 193.765625 99.785156 198.679688 103.292969 200.40625 109.925781 C 201.59375 114.488281 201.285156 118.789062 199.53125 122.652344 C 260.121094 155.265625 229.921875 220.496094 229.921875 220.496094 C 193.972656 263.460938 213.253906 277.242188 213.253906 277.242188 C 215.792969 256.921875 229.878906 240.992188 239.6875 232.160156 C 248.109375 224.574219 254.015625 214.566406 256.328125 203.46875 C 268.742188 143.898438 206.789062 121.570312 206.789062 121.570312 C 295.6875 142.207031 258.644531 221.835938 258.644531 221.835938 C 258.644531 221.835938 281.40625 210.988281 281.40625 171.308594 C 281.40625 131.625 233.246094 114.957031 233.246094 114.957031 " fill-opacity="1" fill-rule="nonzero"/><path fill="#231f20" d="M 133.589844 121.835938 C 133.589844 121.835938 136.941406 114.605469 148.054688 118.484375 C 148.054688 118.484375 146.464844 124.304688 136.148438 124.832031 C 136.148438 124.832031 121.242188 130.832031 119.304688 130.652344 Z M 91.257812 158.875 C 98.074219 172.507812 110.710938 172.992188 115.746094 172.589844 C 117.183594 172.472656 118.570312 171.976562 119.746094 171.132812 C 119.859375 171.054688 119.96875 170.972656 120.078125 170.890625 C 134.855469 174.828125 148.054688 169.316406 148.054688 169.316406 C 136.660156 171.46875 128.105469 170.167969 122.660156 168.519531 C 123.582031 167.472656 124.277344 166.398438 124.804688 165.359375 C 139.238281 168.875 151.941406 163.570312 151.941406 163.570312 C 140.070312 165.816406 131.285156 164.308594 125.882812 162.566406 C 126.019531 162.054688 126.125 161.570312 126.199219 161.117188 C 126.234375 160.914062 126.257812 160.707031 126.273438 160.5 C 140.644531 163.949219 153.265625 158.675781 153.265625 158.675781 C 140.175781 161.152344 130.835938 159.0625 125.648438 157.132812 C 125.507812 156.828125 125.34375 156.53125 125.15625 156.25 L 122.359375 151.996094 C 122.359375 151.996094 141.4375 158.078125 152.550781 158.078125 C 163.664062 158.078125 160.753906 178.449219 160.753906 178.449219 C 184.566406 161.253906 170.808594 150.40625 170.808594 150.40625 C 177.421875 149.085938 181.066406 157.023438 181.066406 157.023438 C 180.742188 145.382812 171.601562 136.375 171.601562 136.375 C 185.359375 122.609375 178.214844 113.636719 178.214844 113.636719 C 178.214844 113.636719 184.828125 107.816406 190.648438 112.3125 C 196.46875 116.808594 184.828125 132.949219 184.828125 132.949219 C 184.828125 132.949219 202.554688 126.597656 198.355469 110.460938 C 194.160156 94.324219 170.011719 105.964844 170.011719 105.964844 C 167.367188 101.203125 158.488281 101.457031 158.488281 101.457031 C 127.140625 95.503906 119.996094 116.136719 119.996094 116.136719 C 88.644531 121.296875 81.46875 139.800781 81.46875 139.800781 C 88.765625 133.695312 100.960938 135.414062 100.960938 135.414062 C 94.609375 137.179688 88.613281 149.699219 88.613281 149.699219 C 88.261719 145.117188 81.484375 140.175781 81.484375 140.175781 C 79.085938 143.980469 81.558594 151.289062 81.558594 151.289062 C 80.5 162.578125 91.257812 158.875 91.257812 158.875 " fill-opacity="1" fill-rule="nonzero"/></svg>