<svg xmlns="http://www.w3.org/2000/svg" xmlns:xlink="http://www.w3.org/1999/xlink" width="500" zoomAndPan="magnify" viewBox="0 0 375 374.999991" height="500" preserveAspectRatio="xMidYMid meet" version="1.0"><defs><clipPath id="8ba91c5e4b"><path d="M 25.566406 5 L 349.566406 5 L 349.566406 370 L 25.566406 370 Z M 25.566406 5 " clip-rule="nonzero"/></clipPath><clipPath id="edc381cbf2"><path d="M 311.140625 282.546875 L 375 282.546875 L 375 375 L 311.140625 375 Z M 311.140625 282.546875 " clip-rule="nonzero"/></clipPath></defs><rect x="-37.5" width="450" fill="#ffffff" y="-37.499999" height="449.999989" fill-opacity="1"/><rect x="-37.5" width="450" fill="#0e2445" y="-37.499999" height="449.999989" fill-opacity="1"/><g clip-path="url(#8ba91c5e4b)"><path fill="#ffffff" d="M 349.410156 149.992188 C 348.953125 145.167969 347.996094 140.757812 346.179688 136.238281 C 340.476562 122.023438 325.109375 103.613281 313.128906 93.707031 C 308.628906 89.980469 303.941406 86.652344 298.929688 83.652344 C 309.808594 85.894531 320.164062 89.613281 327.386719 98.417969 C 323.546875 83.285156 315.488281 69.910156 301.761719 61.757812 C 296.898438 58.871094 291.578125 56.804688 286.085938 55.488281 C 298.28125 53.875 305.699219 53.09375 317.121094 47.328125 C 313.949219 47.863281 310.921875 48.035156 307.734375 47.507812 C 289.691406 44.527344 272.972656 24.378906 253.609375 28.070312 C 256.101562 23.417969 259.726562 20.605469 264.765625 19.066406 C 267.058594 18.367188 269.375 18.074219 271.753906 17.8125 C 268.382812 16.871094 265.039062 15.902344 261.589844 15.292969 C 244.980469 12.355469 227.246094 14.542969 212.503906 22.980469 C 211.957031 23.289062 211.4375 23.636719 210.933594 24.003906 C 214.285156 16.550781 218.328125 10.289062 226.308594 7.253906 C 227.441406 6.824219 228.570312 6.414062 229.710938 6 C 217.140625 5 204.394531 6.277344 194.4375 14.785156 C 191.652344 17.164062 189.410156 19.894531 187.472656 22.996094 C 180.011719 13.121094 171.640625 7.675781 159.210938 5.96875 C 156.65625 5.617188 154.109375 5.539062 151.53125 5.511719 C 149.277344 5.609375 147.046875 5.714844 144.8125 6.007812 C 152.726562 8.644531 158.496094 12.402344 162.34375 20.050781 C 163.019531 21.382812 163.570312 22.769531 164.117188 24.160156 C 147.839844 14.632812 124.066406 11.347656 105.683594 16.210938 C 104.28125 16.578125 102.890625 16.984375 101.515625 17.421875 C 107.054688 17.828125 112.050781 18.722656 115.84375 23.191406 C 117.128906 24.703125 118.160156 26.484375 118.859375 28.339844 C 102.84375 25.535156 83.40625 43.691406 67.730469 47.261719 C 64.867188 47.914062 62.132812 47.898438 59.222656 47.832031 C 69.449219 53.199219 75.25 54.8125 86.882812 54.617188 C 70.847656 61.847656 56.375 72.539062 49.988281 89.621094 C 49.054688 92.136719 48.441406 94.722656 47.839844 97.324219 C 54.292969 90.28125 62.703125 86.328125 72.199219 85.253906 C 68.203125 87.90625 64.558594 91.160156 60.996094 94.363281 C 46.34375 107.566406 30.261719 126.394531 26.136719 146.1875 C 25.917969 147.226562 25.753906 148.277344 25.589844 149.324219 C 28.046875 146.210938 30.660156 143.28125 33.703125 140.710938 C 43.757812 132.21875 59.515625 124.789062 72.410156 122.253906 C 51.152344 134.59375 36.160156 149.042969 29.644531 173.535156 C 26.964844 183.597656 26.25 193.71875 26.664062 204.097656 C 34.238281 187.585938 44.210938 171.160156 58.613281 159.707031 C 54.683594 165.410156 50.988281 171.167969 48.042969 177.449219 C 39.121094 196.484375 37.3125 218.207031 41.089844 238.753906 C 43.179688 250.113281 47.644531 261.535156 53.746094 271.34375 C 52.851562 254.449219 54.152344 239.277344 66.03125 226.121094 C 68.171875 223.753906 70.578125 221.386719 73.183594 219.523438 C 64.101562 235.410156 64.289062 257.1875 69.074219 274.507812 C 73.660156 291.113281 83.757812 305.375 96.675781 316.550781 C 93.03125 303.015625 93.347656 291.460938 96.757812 277.894531 C 98.773438 297.214844 107.339844 310.921875 122.238281 323.027344 C 126.492188 326.484375 131.039062 329.542969 135.324219 332.953125 C 143.640625 339.558594 153.972656 349.515625 156.8125 359.960938 C 159.648438 349.328125 159.765625 338.761719 156.492188 328.183594 C 166.890625 338.800781 183.84375 355.429688 187.398438 369.949219 C 189.628906 358.886719 201.230469 345.992188 209.324219 338.257812 C 212.269531 335.441406 215.335938 332.902344 218.582031 330.445312 C 216.710938 340.242188 215.019531 350.972656 219.191406 360.464844 C 223.828125 341.28125 240.179688 334.53125 253.667969 322.878906 C 261.273438 316.308594 267.921875 308.074219 272.070312 298.890625 C 274.574219 293.34375 276.625 287.078125 276.984375 280.960938 C 282.222656 293.878906 281.097656 304.871094 277.789062 318.015625 C 280.292969 315.492188 282.410156 312.441406 284.800781 309.773438 C 289.398438 304.640625 294.277344 299.921875 298.019531 294.082031 C 304.773438 283.546875 308.132812 264.339844 308.109375 251.8125 C 308.082031 241.449219 306 232.09375 302.714844 222.3125 C 312.191406 229.132812 319.113281 237.902344 320.992188 249.640625 C 322.117188 256.667969 321.757812 264.046875 320.855469 271.09375 C 323.335938 266.59375 325.800781 262.0625 327.828125 257.328125 C 336.53125 237.023438 338.851562 214.796875 332.652344 193.433594 C 330.21875 185.046875 326.28125 177.171875 321.375 169.964844 C 319.382812 167.035156 317.179688 164.246094 315.210938 161.300781 C 318.015625 163.546875 320.886719 165.75 323.539062 168.191406 C 334.410156 178.1875 343.324219 190.847656 348.3125 204.792969 C 348.246094 197.695312 348.066406 190.523438 347.042969 183.492188 C 344.480469 166.011719 336.507812 149.113281 323.847656 136.707031 C 317.894531 130.875 311.921875 127.035156 304.828125 122.757812 C 308.492188 123.765625 312.25 124.675781 315.828125 125.953125 C 329.03125 130.65625 341.046875 138.652344 349.410156 150 Z M 202.765625 49.726562 C 211.925781 38.753906 223.324219 33.441406 237.445312 32.179688 C 241.472656 31.539062 245.988281 32.179688 249.917969 33.105469 C 241.261719 34.269531 236.167969 38.152344 230.839844 44.886719 C 233.289062 43.617188 235.941406 42.578125 238.5625 41.730469 C 251.570312 37.550781 265.292969 39.761719 277.285156 45.878906 C 253.902344 41.496094 236.183594 47.101562 218.132812 62.296875 C 213.414062 66.265625 209.640625 71.007812 204.328125 74.277344 C 204.710938 72.789062 205.191406 71.335938 205.671875 69.871094 C 208.648438 60.695312 218.636719 50.476562 225.902344 44.359375 C 211.957031 49.515625 198.925781 68 191.703125 80.640625 C 192.207031 67.078125 193.695312 60.613281 202.773438 49.742188 Z M 187.367188 100.660156 C 189.660156 94.363281 190.882812 89.6875 196.421875 85.328125 C 201.230469 81.542969 208.257812 78.703125 214.449219 79.503906 C 227.238281 81.144531 236.851562 92.167969 244.289062 101.742188 C 241.992188 102.371094 239.585938 102.695312 237.242188 103.109375 C 243.074219 106.933594 252.699219 118.09375 255.15625 124.335938 C 255.695312 125.703125 255.953125 126.988281 255.863281 128.460938 C 255.621094 132.503906 254.015625 136.804688 253.058594 140.742188 C 252.195312 144.289062 251.570312 148.015625 250.382812 151.457031 C 249.941406 152.734375 249.316406 154.019531 248.453125 155.070312 C 246.996094 156.851562 244.800781 157.890625 242.921875 159.175781 C 237.8125 162.683594 232.921875 168.132812 230.484375 173.851562 C 226.488281 169.199219 225.332031 167.613281 225.074219 161.234375 C 222.394531 169.648438 225.457031 174.171875 228.496094 181.800781 C 229.652344 184.699219 230.417969 187.640625 231.164062 190.660156 C 222.0625 190.277344 216.011719 191.816406 207.972656 196.019531 C 216.757812 194.425781 222.265625 193.273438 231.386719 194.5 C 231.574219 196.949219 231.457031 199.398438 231.199219 201.839844 C 224.414062 200.453125 218.191406 200.414062 211.355469 201.300781 C 217.988281 202.667969 224.511719 203.757812 231.027344 205.636719 C 230.425781 208.515625 229.683594 211.0625 228.449219 213.722656 C 222.003906 210.460938 215 208.582031 207.914062 207.371094 C 213.863281 210.828125 220.175781 213.535156 226.097656 217.117188 C 224.414062 219.785156 222.566406 222.527344 220.019531 224.421875 C 219.140625 224.941406 218.214844 225.316406 217.269531 225.707031 C 206.320312 224.503906 195.25 216.585938 187.390625 209.304688 C 184.835938 212.226562 182.070312 214.535156 178.855469 216.71875 C 174.421875 219.726562 162.914062 226.257812 157.429688 225.015625 C 154.0625 224.25 151.125 219.636719 149.390625 216.914062 C 152.867188 214.742188 156.566406 212.8125 160.21875 210.957031 C 162.503906 209.792969 164.882812 208.726562 166.996094 207.273438 C 160.144531 208.492188 153.644531 210.535156 147.261719 213.285156 C 146.234375 210.640625 145.25 207.851562 144.625 205.074219 C 151.066406 203.742188 157.527344 202.578125 163.976562 201.308594 C 157.242188 200.445312 150.488281 200.136719 143.835938 201.722656 C 143.519531 199.21875 143.492188 196.679688 143.542969 194.160156 C 151.554688 193.394531 159.089844 194.273438 166.914062 196.019531 C 160.261719 191.53125 151.824219 190.390625 144.007812 190.15625 C 144.851562 186.746094 145.851562 183.4375 147.105469 180.15625 C 149.757812 173.210938 152.109375 168.949219 149.382812 161.570312 C 149.210938 167.554688 147.828125 169.582031 143.730469 173.738281 C 141.132812 168.042969 137.613281 163.375 132.609375 159.542969 C 130.707031 158.078125 128.394531 156.679688 126.945312 154.742188 C 126.125 153.644531 125.5625 152.425781 125.125 151.132812 C 123.726562 147.039062 122.960938 142.664062 121.820312 138.480469 C 120.941406 135.285156 119.648438 132.105469 118.964844 128.875 C 118.777344 127.972656 118.691406 127.058594 118.828125 126.140625 C 119.859375 119.289062 132.136719 107.082031 137.554688 103.085938 C 135.238281 102.539062 132.851562 102.175781 130.511719 101.742188 C 131.023438 100.832031 131.648438 99.945312 132.273438 99.109375 C 138.898438 90.265625 149.449219 81.023438 160.757812 79.445312 C 165.800781 78.925781 170.941406 80.753906 175.230469 83.285156 C 182.03125 87.304688 185.4375 93.152344 187.367188 100.667969 Z M 257.253906 149.601562 C 257.613281 150.035156 257.710938 150.398438 257.882812 150.929688 C 263.804688 169.207031 245.621094 181.402344 238.300781 195.90625 C 237.203125 191.988281 236.144531 187.886719 236.324219 183.769531 C 236.769531 173.144531 246.558594 167.808594 252.242188 160.136719 C 254.660156 156.875 256.101562 153.457031 257.253906 149.59375 Z M 212.480469 239.949219 C 211.363281 247.417969 208.445312 252.210938 202.5625 256.9375 C 202.839844 253.074219 203.101562 249.460938 202.164062 245.660156 C 200.300781 253.261719 197.324219 258.9375 191.191406 263.882812 C 191.386719 262.039062 191.304688 260.445312 190.824219 258.644531 C 190.394531 257.019531 189.621094 253.933594 188.121094 253.058594 C 187.902344 253.554688 187.832031 254.074219 187.734375 254.59375 L 187.277344 254.839844 C 187 254.226562 186.8125 253.5625 186.59375 252.925781 C 186.234375 252.976562 186.074219 253.164062 185.835938 253.457031 C 183.902344 255.832031 183.601562 261.085938 183.769531 263.957031 C 177.871094 259.46875 174.578125 252.960938 173.308594 245.777344 C 172.257812 250.015625 172.25 253.765625 173.285156 258.019531 C 166.914062 253 164.191406 247.898438 162.683594 239.949219 C 161.105469 244.351562 161.34375 248.394531 161.78125 252.960938 C 158.976562 250.21875 156.460938 245.898438 156.121094 241.929688 C 155.867188 239.039062 156.988281 236.324219 158.8125 234.117188 C 164.410156 227.351562 178.546875 222.761719 187.195312 222.011719 C 190.222656 221.914062 193.257812 222.996094 196.121094 223.84375 C 202.367188 225.699219 208.746094 227.488281 213.976562 231.578125 C 216.636719 233.664062 218.808594 236.355469 219.140625 239.828125 C 219.628906 244.882812 216.9375 249.078125 213.9375 252.84375 C 214.132812 248.332031 213.871094 244.230469 212.472656 239.925781 Z M 136.992188 194.425781 C 135.226562 190.953125 133.023438 187.722656 130.460938 184.785156 C 125.953125 179.613281 120.097656 174.84375 117.101562 168.574219 C 114.433594 162.96875 115.648438 157.085938 117.664062 151.507812 C 118.859375 152.507812 121.136719 158.183594 122.519531 160.046875 C 127.101562 166.207031 134.464844 170.183594 137.613281 177.441406 C 139.867188 182.632812 138.996094 189.300781 136.984375 194.425781 Z M 108.179688 41.300781 C 120.195312 37.898438 132.949219 38.980469 143.867188 45.089844 C 137.710938 37.378906 134.210938 35.3125 124.90625 32.789062 C 126.855469 32.472656 128.816406 32.328125 130.792969 32.179688 C 130.925781 32.164062 131.054688 32.148438 131.175781 32.140625 C 144.175781 31.121094 157.421875 35.734375 167.070312 44.449219 C 173.4375 50.199219 180.460938 60.164062 182.101562 68.722656 C 182.84375 72.546875 182.714844 76.558594 182.890625 80.4375 C 173.933594 66.378906 164.441406 50.996094 148.414062 44.179688 C 150.15625 45.984375 152.214844 47.539062 154.035156 49.289062 C 158.707031 53.804688 162.59375 58.699219 166.050781 64.183594 C 167.941406 67.398438 169.257812 70.59375 170.46875 74.101562 C 164.425781 70.34375 159.730469 64.808594 154.125 60.433594 C 136.140625 46.390625 120.585938 42.511719 98.117188 45.277344 C 101.335938 43.609375 104.679688 42.277344 108.179688 41.292969 Z M 307.433594 140.621094 C 315.691406 144.226562 322.742188 148.933594 328.429688 156.027344 C 323.679688 153.050781 318.261719 150.742188 312.898438 149.113281 C 302.105469 145.828125 292.34375 144.605469 284.28125 135.675781 C 281.789062 132.917969 280.140625 129.703125 278.066406 126.652344 C 280.902344 140.71875 291.527344 148.324219 300.785156 158.070312 C 317.683594 175.878906 324.816406 196.386719 324.265625 220.769531 C 322.855469 216.164062 321.808594 211.503906 319.921875 207.050781 C 310.777344 185.535156 293.261719 180.792969 277.917969 166.207031 C 280.796875 171.492188 285.28125 175.886719 289.4375 180.191406 C 291.617188 182.445312 293.847656 184.671875 295.808594 187.128906 C 302.40625 195.410156 307.179688 205.792969 309.230469 216.132812 C 302.175781 211.835938 295.074219 208.207031 288.550781 203.042969 C 278.917969 195.410156 274.078125 186.550781 272.703125 174.375 C 268.195312 192.34375 270.890625 199.585938 281.644531 214.1875 C 284.742188 218.402344 287.6875 222.535156 289.984375 227.269531 C 295.644531 238.976562 296.613281 254.734375 294 267.464844 C 293.105469 271.824219 291.625 275.988281 290.171875 280.179688 C 289.691406 275.746094 289.265625 271.246094 288.226562 266.902344 C 285.222656 254.382812 277.796875 249.339844 268.765625 241.238281 C 266.253906 238.984375 263.984375 236.542969 261.714844 234.054688 C 265.667969 245.703125 267.328125 258.589844 265.945312 270.847656 C 265.375 275.882812 264.210938 280.75 262.363281 285.46875 C 257.71875 297.320312 246.296875 313.996094 236.429688 321.886719 C 239.316406 316.226562 242.269531 310.546875 244.351562 304.527344 C 250.691406 286.167969 248.476562 267.164062 242.9375 248.972656 C 242.710938 265.933594 237.84375 282.636719 226.023438 295.230469 C 221.859375 299.664062 217.207031 303.265625 212.316406 306.847656 C 205.351562 311.945312 197.789062 317.300781 193.222656 324.808594 C 190.042969 330.039062 188.847656 335.808594 187.59375 341.707031 C 183.964844 330.242188 180.175781 321.613281 170.070312 314.402344 C 164.695312 310.570312 159.4375 307.023438 154.605469 302.492188 C 138.140625 287.0625 134.351562 270.171875 133.667969 248.613281 C 125.847656 268.570312 124.367188 288.28125 132.488281 308.554688 C 134.300781 313.09375 137.222656 317 139.09375 321.433594 C 139.125 321.515625 139.164062 321.601562 139.199219 321.683594 C 127.371094 313.070312 117.332031 300.265625 112.417969 286.484375 C 108.226562 274.753906 105.640625 260.347656 108.878906 248.160156 C 110.15625 243.359375 112.320312 238.984375 114.441406 234.515625 C 112.253906 235.941406 110.140625 237.460938 108.113281 239.105469 C 96.210938 248.761719 85.757812 262.226562 84.097656 277.902344 C 82.910156 275.355469 81.917969 272.554688 81.179688 269.847656 C 78.144531 258.710938 78.355469 244.785156 82.089844 233.875 C 83.53125 229.675781 85.613281 225.773438 87.972656 222.03125 C 91.234375 216.863281 95.457031 212.265625 98.433594 206.953125 C 102.46875 199.761719 104.210938 192.199219 104.28125 183.988281 C 104.308594 181.417969 104.25 178.839844 103.558594 176.351562 C 100.613281 189.382812 92.648438 198.859375 81.757812 206.28125 C 76.101562 210.136719 70.292969 213.464844 64.898438 217.71875 C 68.578125 195.328125 81.585938 185.699219 94.105469 168.460938 C 92.070312 170.128906 89.761719 171.492188 87.597656 172.984375 C 82.660156 176.398438 77.582031 179.839844 72.960938 183.671875 C 59.75 194.636719 51.925781 206.988281 50.347656 224.308594 C 49.3125 217.320312 49.867188 209.761719 50.84375 202.78125 C 53.257812 185.574219 62.289062 171.136719 74.238281 158.925781 C 82.789062 150.195312 89.859375 145.6875 92.902344 133.144531 C 91.101562 134.8125 89.542969 136.578125 87.554688 138.058594 C 78.574219 144.753906 67.984375 147.648438 57.554688 151.195312 C 53.878906 152.449219 50.28125 153.90625 46.660156 155.3125 C 52.289062 149.847656 59.082031 145.128906 65.867188 141.207031 C 72.539062 137.351562 86.570312 130.800781 91.453125 125.195312 C 93.871094 122.421875 95.195312 118.003906 96.886719 114.71875 C 98.480469 111.621094 100.3125 108.746094 102.265625 105.867188 C 100.125 104.492188 97.992188 103.09375 96.246094 101.230469 C 87.914062 92.355469 87.816406 75.457031 88.152344 63.964844 C 91.746094 63.304688 95.277344 62.914062 98.921875 62.710938 C 101.289062 62.46875 103.792969 62.546875 106.179688 62.582031 C 121.097656 62.785156 136.53125 66.550781 149.132812 74.710938 C 142.917969 76.996094 136.578125 78.875 130.386719 81.292969 C 133.226562 81.804688 135.976562 82.609375 138.726562 83.488281 C 137.644531 83.960938 136.570312 84.449219 135.519531 84.976562 C 119.300781 93.039062 105.347656 107.542969 99.464844 124.886719 C 104.070312 118.6875 108.097656 114.515625 114.605469 110.292969 C 113.882812 113.082031 113.386719 115.671875 113.304688 118.558594 C 110.058594 123.023438 106.691406 126.71875 103.980469 131.671875 C 101.523438 136.179688 100.191406 141.070312 97.195312 145.316406 C 90.144531 155.320312 79.867188 162.683594 71.066406 171.0625 C 80.179688 166.570312 92.867188 158.308594 100.351562 151.246094 C 102.605469 149.121094 104.582031 146.761719 106.640625 144.453125 C 105.753906 148.660156 104.640625 152.890625 104.835938 157.21875 C 105.03125 161.339844 106.308594 165.359375 107.699219 169.214844 C 112.5 182.476562 114.988281 189.308594 110.285156 203.480469 C 106.886719 213.746094 100.792969 220.921875 94.625 229.425781 C 92.210938 232.75 89.6875 236.191406 88.132812 240.023438 L 87.996094 240.375 C 93.128906 234.320312 99.921875 229.894531 105.972656 224.84375 C 115.867188 216.59375 120.757812 208.054688 121.902344 195.242188 C 128.207031 203.398438 126.042969 215.667969 123.34375 224.8125 C 121.902344 229.699219 119.976562 234.417969 118.796875 239.390625 C 117.632812 244.277344 117.273438 249.144531 117.316406 254.15625 C 119.195312 248.535156 121.554688 243.398438 124.359375 238.1875 C 128.5 230.507812 133.171875 223.402344 135.210938 214.796875 C 142.070312 224.761719 135.105469 232.15625 139.214844 239.730469 C 141.222656 235.695312 143.304688 231.734375 144.699219 227.429688 C 145.941406 229.171875 147.1875 231.09375 147.332031 233.289062 C 147.535156 236.445312 145.738281 240.113281 145.144531 243.238281 C 144.144531 248.453125 143.769531 254.332031 144.085938 259.621094 C 144.820312 271.90625 149.585938 282.398438 156.792969 292.179688 C 159.472656 295.808594 162.300781 299.265625 165.695312 302.25 C 164.726562 300.753906 163.546875 299.410156 162.554688 297.9375 C 160.210938 294.472656 158.503906 290.152344 157.371094 286.140625 C 155.332031 278.910156 155.027344 270.800781 158.84375 264.113281 L 159.015625 263.8125 C 158.625 278.632812 164.164062 288.980469 172.976562 300.394531 C 176.871094 305.4375 180.460938 310.058594 183.023438 315.957031 C 181.597656 305.730469 175.847656 296.53125 175.035156 286.484375 C 174.699219 282.300781 175.230469 278.242188 175.886719 274.125 C 176.953125 277.160156 178.027344 280.226562 179.351562 283.15625 C 182.289062 289.625 185.835938 295.796875 187.578125 302.738281 C 189.53125 298.238281 191.417969 293.730469 193.484375 289.289062 C 195.640625 284.660156 197.941406 280.195312 199.78125 275.429688 C 200.9375 289.648438 195.183594 303.175781 190.742188 316.371094 C 193.335938 313.3125 195.460938 309.628906 197.789062 306.34375 C 207.632812 292.445312 214.714844 281.40625 215.503906 263.582031 C 216.207031 265.242188 216.808594 266.925781 217.207031 268.691406 C 219.949219 280.757812 215.058594 290.632812 208.777344 300.542969 C 211.453125 298.359375 213.910156 295.675781 216.164062 293.066406 C 227.382812 280.097656 232.679688 264.355469 229.871094 247.214844 C 229.253906 243.417969 226.457031 235.808594 227 232.433594 C 227.285156 230.710938 228.222656 228.894531 229.652344 227.863281 C 230.164062 228.074219 230.199219 228.226562 230.433594 228.714844 C 231.222656 230.320312 231.679688 232.207031 232.296875 233.890625 C 233.054688 235.925781 234.011719 237.796875 235.078125 239.683594 C 238.675781 233.363281 234.730469 226.871094 236.902344 220.621094 C 237.585938 218.660156 239.269531 216.675781 240.398438 214.925781 C 241.066406 218.066406 241.773438 221.199219 242.953125 224.203125 C 244.921875 229.230469 247.835938 233.890625 250.429688 238.601562 C 253.578125 244.320312 256.269531 250.054688 258.3125 256.261719 C 259.453125 238.421875 248.085938 222.222656 249.746094 207.027344 C 250.167969 203.179688 251.550781 199.601562 253.316406 196.183594 C 253.832031 199.285156 254.238281 202.519531 255.109375 205.539062 C 259.402344 220.296875 275.933594 233.34375 289.023438 240.578125 C 281.585938 233.710938 275.511719 225.707031 270.351562 217.035156 C 262.851562 204.410156 259.230469 191.246094 264.046875 176.929688 C 265.625 172.234375 268.019531 167.554688 268.90625 162.683594 C 269.960938 156.882812 268.90625 150.894531 266.722656 145.484375 C 271.671875 149.058594 276.121094 153.425781 281 157.128906 C 285.476562 160.519531 290.257812 163.472656 294.765625 166.816406 C 298.175781 169.347656 301.273438 172.144531 304.339844 175.074219 C 300.671875 168.550781 294.726562 163.929688 289.496094 158.699219 C 286.445312 155.648438 283.652344 152.320312 281.132812 148.820312 C 276.578125 142.492188 273.304688 135.511719 269.589844 128.695312 C 266.113281 122.324219 262.273438 116.152344 258.238281 110.121094 C 263.746094 112.53125 267.765625 117.363281 271.402344 121.96875 C 270.464844 117.632812 269.125 113.71875 267.007812 109.804688 C 260.875 98.480469 248.648438 87.3125 236.265625 83.632812 C 239.285156 82.570312 242.277344 82.074219 245.476562 81.957031 C 238.796875 79.070312 233.125 75.335938 225.835938 73.890625 C 242.320312 63.71875 264.542969 61.613281 283.351562 64.46875 C 284.90625 70.375 285.914062 75.847656 285.542969 82.015625 C 284.957031 91.664062 279.992188 101.394531 272.753906 107.753906 C 275.421875 112.417969 277.992188 117.507812 281.035156 121.910156 C 287.566406 131.339844 297.222656 136.203125 307.410156 140.605469 Z M 152.964844 104.542969 C 155.386719 105.003906 157.804688 105.84375 159.992188 106.992188 C 169.136719 111.757812 168.730469 117.199219 170.738281 126.035156 C 171.40625 128.957031 172.773438 131.890625 173.691406 134.765625 C 172.738281 134.0625 171.992188 132.300781 171.390625 131.234375 C 166.078125 121.773438 162.886719 110.300781 152.964844 104.542969 Z M 201.601562 134.308594 L 201.441406 134.171875 C 202.433594 131.25 203.472656 128.246094 204.148438 125.238281 C 204.996094 121.453125 205.058594 117.769531 206.949219 114.246094 C 209.941406 108.683594 215.613281 106.355469 221.355469 104.605469 L 221.507812 104.625 L 221.558594 104.808594 C 220.265625 105.640625 218.90625 106.445312 217.75 107.460938 C 209.894531 114.34375 207.242188 125.644531 201.691406 134.25 L 201.59375 134.316406 Z M 212.601562 126.101562 C 209.324219 132.730469 209.023438 139.238281 208.347656 146.421875 C 207.800781 152.207031 206.769531 156.46875 208.714844 162.113281 C 208.519531 155.980469 210.203125 150.878906 212.925781 145.4375 C 213.9375 143.417969 215.066406 141.402344 215.78125 139.253906 C 216.5625 136.929688 216.628906 134.234375 217.214844 131.8125 C 219.898438 132.894531 223.398438 132.902344 226.089844 131.84375 C 229.074219 130.671875 230.539062 128.363281 231.777344 125.5625 C 233.5 125.605469 235.226562 125.578125 236.910156 125.984375 C 235.015625 130.738281 231.882812 134.730469 227.113281 136.796875 C 225.472656 137.511719 223.78125 138.011719 222.003906 138.261719 C 225.390625 139.222656 228.59375 139.394531 231.785156 137.636719 C 234.632812 136.066406 236.933594 133.234375 237.746094 130.070312 C 238.121094 128.621094 238.269531 127.476562 237.871094 126.027344 C 237.925781 125.984375 237.976562 125.929688 238.03125 125.898438 C 239.804688 124.796875 246.101562 125.652344 248.121094 126.066406 C 245.621094 123.832031 243.019531 121.773438 240.066406 120.167969 C 235.046875 117.453125 227.789062 115.019531 222.101562 116.816406 C 217.652344 118.226562 214.601562 122.066406 212.609375 126.109375 Z M 221.402344 124.984375 C 221.8125 124.203125 222.210938 123.9375 222.957031 123.480469 C 224 123.421875 224.707031 123.351562 225.59375 123.96875 C 225.902344 124.488281 226.128906 124.734375 225.886719 125.359375 C 225.609375 126.082031 224.910156 126.523438 224.292969 126.921875 C 223.453125 126.921875 222.476562 126.921875 221.828125 126.3125 C 221.347656 125.855469 221.394531 125.585938 221.410156 124.984375 Z M 166.160156 162.976562 C 166.679688 161.570312 167.167969 160.136719 167.417969 158.65625 C 168.09375 154.71875 167.363281 151.050781 166.957031 147.144531 C 166.003906 138.042969 165.847656 130.515625 160.179688 122.632812 C 157.875 119.4375 154.621094 116.792969 150.621094 116.222656 C 142.070312 115.003906 131.820312 120.761719 125.164062 125.613281 L 125.484375 125.578125 C 127.371094 125.390625 135.277344 125 136.382812 125.90625 C 135.902344 128.972656 136.464844 131.664062 138.289062 134.21875 C 140.070312 136.707031 142.730469 138.605469 145.789062 139.082031 C 148.269531 139.472656 150.652344 138.921875 152.945312 138.011719 C 148.171875 137.5625 144.160156 136.1875 141.011719 132.386719 C 139.507812 130.574219 138.710938 128.664062 137.839844 126.507812 C 138.945312 125.285156 141.101562 125.472656 142.679688 125.335938 C 143.542969 127.988281 145.136719 130.703125 147.691406 132.015625 C 150.765625 133.59375 154.0625 132.617188 157.144531 131.648438 C 158.550781 134.21875 158.398438 137.105469 159.414062 139.800781 C 160.121094 141.671875 161.1875 143.4375 162.113281 145.203125 C 165.289062 151.246094 167.027344 156.144531 166.148438 162.984375 Z M 153.238281 126.132812 C 152.792969 126.703125 152.433594 126.898438 151.808594 127.222656 C 150.75 127.042969 149.863281 126.824219 149.007812 126.148438 C 148.472656 125.71875 148.359375 125.53125 148.316406 124.855469 C 148.910156 124.253906 149.449219 124.230469 150.253906 124.007812 C 150.367188 124.015625 150.488281 124.027344 150.605469 124.042969 C 151.546875 124.164062 152.660156 124.398438 153.214844 125.253906 C 153.433594 125.585938 153.304688 125.765625 153.246094 126.132812 Z M 187.414062 178.871094 C 188.195312 178.101562 189.074219 177.398438 190.003906 176.804688 C 196.484375 172.699219 203.523438 173.429688 210.640625 174.960938 C 212.144531 172.550781 212.242188 170.492188 211.746094 167.75 C 212.503906 168.648438 212.960938 169.476562 213.292969 170.605469 C 214.375 174.269531 213.925781 178.75 212.054688 182.0625 C 209.371094 186.820312 204.679688 187.96875 199.847656 189.40625 C 201.570312 186.796875 202.605469 185.078125 202.734375 181.882812 C 192.875 189.496094 193.328125 197.46875 187.496094 207.148438 C 186.242188 205.417969 185.414062 203.382812 184.558594 201.429688 C 181.460938 194.378906 179.085938 186.933594 172.511719 182.339844 C 172.21875 182.230469 172.082031 182.320312 171.789062 182.394531 C 171.78125 182.515625 171.746094 182.640625 171.753906 182.761719 C 171.941406 185.136719 173.925781 187.976562 175.449219 189.726562 C 172.617188 188.863281 169.769531 188.136719 167.222656 186.558594 C 164.207031 184.6875 162.195312 181.769531 161.421875 178.3125 C 160.519531 174.292969 161.519531 170.695312 163.710938 167.296875 C 163.507812 168.425781 163.261719 169.574219 163.269531 170.730469 C 163.269531 171.910156 163.328125 173.640625 164.261719 174.488281 C 164.914062 175.074219 168.84375 173.957031 169.917969 173.859375 C 176.652344 173.210938 182.175781 174.527344 187.421875 178.855469 Z M 270.378906 104.417969 C 266.878906 99.222656 262.128906 94.738281 257.289062 90.792969 C 254.390625 88.476562 251.257812 86.523438 248.113281 84.578125 C 251.257812 82.976562 258.167969 80.085938 261.625 79.679688 C 255.742188 76.734375 249.910156 74.832031 243.375 74.082031 C 250.675781 72.308594 258.070312 71.34375 265.5625 70.96875 C 269.441406 70.75 273.296875 70.96875 277.171875 71.179688 C 278.464844 82.390625 276.804688 94.871094 270.386719 104.410156 Z M 104.113281 100.996094 C 96.609375 93.070312 95.539062 81.429688 95.855469 71.042969 C 99.085938 70.519531 102.371094 70.414062 105.632812 70.253906 C 114.824219 69.820312 124.207031 72.269531 133.171875 74.019531 C 126.027344 74.816406 120.820312 75.492188 115.5 80.738281 C 119.023438 81.84375 122.164062 83.382812 125.433594 85.058594 C 123.523438 86.3125 121.667969 87.621094 119.8125 88.953125 C 114.507812 92.941406 109.902344 97.449219 105.273438 102.183594 C 104.882812 101.792969 104.492188 101.394531 104.113281 100.996094 Z M 104.113281 100.996094 " fill-opacity="1" fill-rule="nonzero"/></g><g clip-path="url(#edc381cbf2)"><path fill="#0e2445" d="M 335.171875 282.550781 C 333.441406 282.664062 333.246094 285.070312 331.542969 285.386719 C 330.636719 285.558594 329.902344 285.035156 329.058594 285.261719 C 327.925781 285.570312 326.871094 286.726562 326.554688 287.921875 C 326.507812 287.90625 326.457031 287.890625 326.425781 287.921875 C 326.398438 287.953125 326.457031 288.019531 326.425781 288.050781 C 326.367188 288.109375 326.230469 287.988281 326.167969 288.050781 C 326.136719 288.082031 326.199219 288.148438 326.167969 288.179688 C 326.109375 288.242188 325.96875 288.117188 325.910156 288.179688 C 325.878906 288.210938 325.941406 288.277344 325.910156 288.308594 C 325.863281 288.355469 325.351562 288.265625 325.261719 288.308594 C 325.207031 288.335938 325.1875 288.410156 325.132812 288.4375 C 325.128906 288.441406 325.121094 288.4375 325.117188 288.441406 C 325.273438 288.296875 325.402344 288.121094 325.453125 287.875 C 324.347656 288.136719 323.171875 289.402344 322.71875 290.734375 C 323.015625 291.519531 322.800781 291.808594 322.59375 292.597656 C 323.355469 294 325.328125 293.425781 326.449219 294.460938 C 325.5625 295.480469 324.15625 295.984375 323.339844 297.070312 C 322.34375 300.382812 319.152344 301.503906 316.503906 303.164062 C 315.550781 304.558594 313.726562 304.957031 313.769531 306.644531 C 313.808594 308.15625 316.152344 310.03125 315.261719 311.492188 C 314.367188 311.246094 313.441406 311.015625 312.902344 310.746094 L 312.902344 311.367188 C 313.78125 311.4375 315.628906 311.398438 315.511719 312.859375 L 313.769531 312.859375 C 313.765625 312.6875 313.828125 312.585938 313.894531 312.484375 C 313.417969 313.167969 311.617188 312.527344 311.410156 313.480469 C 312.375 313.476562 314.171875 312.738281 315.632812 313.230469 C 315.867188 314.199219 316.277344 314.992188 316.753906 315.714844 C 316.363281 315.65625 316.425781 316.050781 316.132812 316.089844 C 315.542969 319.117188 316.992188 321.085938 318.246094 322.675781 C 318.550781 322.695312 318.84375 322.695312 318.992188 322.550781 C 318.964844 322.910156 318.976562 323.230469 319.363281 323.175781 C 319.851562 323.050781 319.277344 322.640625 319.613281 322.429688 C 319.503906 322.949219 320.167969 322.699219 320.359375 322.925781 C 320.550781 322.746094 320.457031 322.277344 320.855469 322.304688 C 320.867188 322.5 320.839844 322.734375 321.105469 322.675781 C 321.433594 321.472656 322.132812 320.898438 323.21875 321.1875 C 321.785156 321.6875 322.179688 323.8125 323.21875 324.417969 C 322.8125 325.683594 323.382812 327.511719 324.335938 327.402344 C 323.804688 326.804688 324.109375 325.238281 324.335938 324.417969 C 324.742188 327.410156 325.539062 330.007812 327.691406 331.253906 C 327.007812 331.5625 326.382812 331.9375 325.828125 332.371094 C 326.363281 333.003906 327.691406 332.386719 328.175781 332.269531 C 328.183594 332.316406 328.191406 332.363281 328.175781 332.394531 C 328.160156 332.421875 328.125 332.433594 328.109375 332.460938 C 328.101562 332.480469 328.109375 332.503906 328.109375 332.523438 L 328.109375 332.585938 C 327.089844 334.308594 326.050781 336.394531 326.695312 338.835938 C 327.207031 340.765625 328.902344 342.644531 329.679688 344.054688 C 329.558594 342.558594 329.035156 341.464844 328.683594 340.203125 C 329.828125 341.753906 329.808594 344.464844 331.542969 345.421875 C 331.109375 344.117188 330.386719 343.097656 329.929688 341.820312 L 330.550781 341.820312 C 329.4375 340.59375 328.847656 338.230469 329.59375 336.34375 C 329.59375 336.34375 329.597656 336.347656 329.601562 336.34375 C 329.605469 336.339844 329.601562 336.328125 329.601562 336.320312 C 329.605469 336.308594 329.609375 336.292969 329.613281 336.28125 C 329.632812 336.285156 329.652344 336.292969 329.664062 336.28125 C 329.679688 336.265625 329.65625 336.234375 329.664062 336.214844 C 329.703125 336.136719 329.820312 336.097656 329.859375 336.019531 C 329.867188 336 329.847656 335.976562 329.859375 335.957031 C 329.871094 335.929688 329.949219 335.863281 330.003906 335.8125 C 329.671875 338.003906 329.71875 340.957031 331.046875 342.066406 C 331.601562 344.425781 332.199219 347.144531 333.285156 348.65625 C 333.441406 348.875 333.289062 349.5625 333.90625 349.152344 C 332.902344 347.132812 333.136719 343.394531 334.03125 341.199219 C 334.15625 341.734375 334.265625 342.222656 334.355469 342.679688 C 334.386719 342.539062 334.417969 342.394531 334.457031 342.246094 C 334.457031 342.246094 334.453125 342.238281 334.457031 342.234375 C 334.457031 342.234375 334.457031 342.234375 334.460938 342.230469 C 334.480469 342.144531 334.496094 342.0625 334.519531 341.972656 C 334.519531 341.996094 334.519531 342.007812 334.519531 342.03125 C 334.515625 342.082031 334.511719 342.132812 334.507812 342.183594 C 334.492188 342.199219 334.46875 342.210938 334.460938 342.230469 C 334.457031 342.238281 334.457031 342.242188 334.457031 342.246094 C 334.429688 342.34375 334.488281 342.464844 334.457031 342.558594 C 334.445312 342.589844 334.402344 342.597656 334.390625 342.625 C 334.378906 342.644531 334.390625 342.667969 334.390625 342.6875 L 334.390625 342.878906 C 334.605469 344.011719 334.707031 344.878906 334.738281 345.539062 C 335.277344 347.726562 336.453125 349.390625 337.136719 351.515625 C 337.339844 352.136719 337.574219 352.777344 338.007812 353.378906 C 337.082031 349.308594 336.980469 348.644531 336.980469 348.644531 C 337.457031 349.757812 337.847656 351.246094 338.128906 352.386719 C 338.625 352.132812 338.199219 350.960938 338.753906 350.769531 C 338.820312 351.820312 338.957031 352.800781 339.621094 353.253906 C 339.542969 352.621094 339.023438 351.34375 339.746094 351.019531 C 339.359375 353.136719 340.132812 354.859375 341.363281 355.742188 C 341.042969 354.402344 339.910156 353.21875 340.242188 351.640625 C 340.808594 351.894531 340.648438 353.949219 341.363281 353.253906 C 341.761719 354.265625 342.320312 355.117188 343.101562 355.742188 C 343.453125 355.546875 342.820312 355.074219 343.226562 354.871094 C 344.523438 356.160156 344.878906 358.476562 344.097656 360.589844 C 344.886719 360.21875 344.945312 359.121094 345.214844 358.226562 C 345.457031 359.722656 344.304688 360.449219 344.34375 361.335938 C 344.941406 361.511719 344.894531 360.402344 345.214844 360.714844 C 345.167969 361.371094 344.679688 361.585938 344.71875 362.328125 C 345.722656 361.757812 345.59375 360.054688 346.457031 359.34375 C 346.871094 360.332031 345.113281 361.480469 346.085938 362.203125 C 346.0625 361.4375 346.265625 360.890625 346.582031 360.464844 C 346.933594 362.277344 347.089844 364.109375 347.203125 365.808594 C 347.300781 367.273438 347.667969 368.753906 347.824219 370.285156 C 348.019531 372.1875 347.542969 374.363281 347.703125 376.375 C 347.925781 379.285156 349.121094 381.457031 347.578125 383.582031 C 347.03125 382.953125 346.441406 383.132812 345.589844 382.839844 C 345.222656 383.039062 344.699219 383.222656 344.96875 383.707031 C 345.003906 383.71875 345.023438 383.714844 345.054688 383.71875 C 345.058594 383.746094 345.0625 383.773438 345.074219 383.796875 C 345.078125 383.8125 345.097656 383.816406 345.105469 383.828125 C 345.105469 383.832031 345.105469 383.882812 345.105469 383.925781 C 345.085938 383.917969 345.066406 383.90625 345.046875 383.898438 C 344.835938 383.769531 344.632812 383.636719 344.472656 383.457031 C 344.289062 383.445312 344.117188 383.441406 343.953125 383.445312 C 343.023438 383.46875 342.359375 383.75 341.839844 384.183594 C 341.839844 384.1875 341.835938 384.183594 341.835938 384.183594 C 341.78125 384.238281 341.789062 384.234375 341.800781 384.222656 C 341.808594 384.210938 341.816406 384.195312 341.769531 384.21875 C 341.730469 384.238281 341.710938 384.296875 341.671875 384.316406 C 341.664062 384.320312 341.648438 384.308594 341.640625 384.316406 C 341.628906 384.328125 341.644531 384.351562 341.640625 384.371094 C 341.636719 384.375 341.632812 384.375 341.632812 384.378906 C 341.625 384.378906 341.613281 384.375 341.609375 384.378906 C 341.605469 384.382812 341.609375 384.394531 341.609375 384.402344 C 340.902344 385.117188 340.488281 386.128906 339.996094 387.0625 C 337.808594 387.347656 339.117188 391.390625 341.117188 390.792969 C 341.210938 391.648438 342.078125 391.734375 342.359375 392.40625 C 343.371094 392.152344 344.507812 391.878906 345.714844 392.160156 C 345.796875 391.875 345.730469 391.742188 345.644531 391.625 C 345.644531 391.625 345.648438 391.628906 345.648438 391.628906 C 345.65625 391.632812 345.707031 391.628906 345.71875 391.628906 L 346.039062 391.628906 C 346.046875 391.628906 346.054688 391.632812 346.0625 391.628906 C 346.066406 391.621094 346.054688 391.613281 346.0625 391.605469 C 346.066406 391.601562 346.078125 391.605469 346.085938 391.605469 C 346.105469 391.605469 346.1875 391.609375 346.199219 391.605469 C 346.210938 391.601562 346.210938 391.585938 346.222656 391.582031 C 346.234375 391.574219 346.257812 391.59375 346.269531 391.582031 C 346.273438 391.578125 346.261719 391.566406 346.269531 391.558594 C 346.277344 391.550781 346.304688 391.566406 346.3125 391.558594 C 346.320312 391.554688 346.308594 391.542969 346.3125 391.539062 C 346.320312 391.53125 346.332031 391.542969 346.335938 391.539062 C 346.339844 391.53125 346.332031 391.519531 346.335938 391.515625 C 346.34375 391.507812 346.375 391.523438 346.382812 391.515625 C 346.386719 391.507812 346.382812 391.5 346.382812 391.492188 C 346.390625 391.492188 346.398438 391.496094 346.40625 391.492188 C 346.414062 391.488281 346.417969 391.472656 346.429688 391.46875 C 346.433594 391.464844 346.460938 391.46875 346.480469 391.46875 C 346.609375 391.972656 347.566406 392.078125 347.828125 392.035156 C 347.824219 392.019531 347.820312 392.007812 347.816406 391.996094 L 347.847656 391.996094 C 347.855469 391.996094 347.863281 392 347.871094 391.996094 C 347.875 391.988281 347.863281 391.976562 347.871094 391.972656 C 347.875 391.964844 347.886719 391.976562 347.890625 391.972656 C 347.898438 391.964844 347.886719 391.953125 347.890625 391.949219 C 347.898438 391.945312 347.910156 391.953125 347.914062 391.949219 C 347.925781 391.945312 347.929688 391.929688 347.9375 391.925781 C 347.945312 391.921875 348.003906 391.929688 348.007812 391.925781 C 348.011719 391.921875 348 391.910156 348.007812 391.902344 C 348.011719 391.898438 348.023438 391.910156 348.03125 391.902344 C 348.035156 391.898438 348.023438 391.886719 348.03125 391.878906 C 348.035156 391.875 348.046875 391.886719 348.050781 391.878906 C 348.058594 391.875 348.046875 391.863281 348.050781 391.859375 C 348.0625 391.847656 348.089844 391.867188 348.097656 391.859375 C 348.105469 391.851562 348.09375 391.839844 348.097656 391.835938 C 348.105469 391.828125 348.117188 391.839844 348.121094 391.835938 C 348.125 391.828125 348.117188 391.816406 348.121094 391.8125 C 348.125 391.804688 348.140625 391.816406 348.144531 391.8125 C 348.148438 391.804688 348.140625 391.792969 348.144531 391.789062 C 348.148438 391.785156 348.164062 391.792969 348.167969 391.789062 C 348.179688 391.777344 348.15625 391.753906 348.167969 391.742188 C 348.171875 391.738281 348.183594 391.746094 348.191406 391.742188 C 348.195312 391.738281 348.183594 391.726562 348.191406 391.71875 C 348.195312 391.714844 348.207031 391.726562 348.214844 391.71875 C 348.21875 391.714844 348.207031 391.640625 348.214844 391.628906 C 348.21875 391.617188 348.230469 391.617188 348.234375 391.605469 C 348.238281 391.597656 348.234375 391.589844 348.234375 391.582031 L 348.234375 391.3125 C 348.3125 391.242188 348.402344 391.171875 348.570312 391.167969 C 348.621094 391.46875 348.34375 391.4375 348.445312 391.789062 C 349.753906 391.824219 350.683594 391.148438 352.175781 391.414062 C 352.570312 390.773438 353.484375 390.652344 353.917969 390.046875 C 353.753906 388.164062 354.574219 387.261719 354.859375 385.824219 C 354.859375 385.824219 354.863281 385.820312 354.863281 385.820312 C 354.867188 385.816406 354.867188 385.808594 354.863281 385.804688 C 354.863281 385.796875 354.867188 385.792969 354.867188 385.789062 C 354.871094 385.789062 354.878906 385.789062 354.878906 385.789062 C 354.882812 385.785156 354.878906 385.777344 354.878906 385.769531 L 354.878906 385.722656 C 354.789062 385.515625 354.925781 385.644531 355.035156 385.449219 C 356.191406 383.445312 356.589844 381.054688 356.648438 378.363281 C 356.65625 378.101562 356.378906 377.785156 356.402344 377.492188 C 356.46875 376.695312 357.140625 375.390625 357.398438 374.261719 C 358.035156 371.457031 358.546875 368.011719 358.886719 364.941406 C 359.613281 363.347656 360.667969 362.078125 361.375 360.464844 C 361.363281 360.847656 360.949219 361.726562 361.621094 361.707031 C 361.714844 361.136719 361.667969 360.425781 361.871094 359.96875 C 363.125 361.484375 361.171875 361.878906 360.753906 363.324219 C 360.078125 365.644531 359.789062 367.28125 361.5 369.039062 C 361.851562 369.011719 361.433594 368.726562 361.496094 368.601562 C 361.519531 368.617188 361.558594 368.582031 361.578125 368.601562 C 361.601562 368.625 361.558594 368.671875 361.578125 368.695312 C 361.601562 368.714844 361.644531 368.679688 361.671875 368.695312 C 361.78125 369.019531 361.847656 369.378906 361.871094 369.785156 C 364.613281 371.230469 367.109375 372.917969 369.453125 374.757812 C 369.464844 374.5625 369.4375 374.328125 369.703125 374.386719 C 371.804688 374.851562 375.855469 374.851562 377.035156 374.011719 C 376.972656 373.996094 376.902344 373.984375 376.835938 373.972656 C 376.839844 373.96875 376.84375 373.964844 376.847656 373.957031 C 376.851562 373.953125 376.84375 373.941406 376.847656 373.9375 C 376.851562 373.925781 376.863281 373.921875 376.871094 373.914062 C 376.875 373.90625 376.867188 373.898438 376.871094 373.890625 C 376.875 373.875 376.886719 373.859375 376.890625 373.84375 C 376.894531 373.835938 376.886719 373.828125 376.890625 373.820312 C 376.898438 373.8125 376.910156 373.808594 376.914062 373.800781 C 376.921875 373.789062 376.917969 373.773438 376.914062 373.761719 C 376.996094 373.761719 377.074219 373.765625 377.160156 373.761719 C 378.320312 372.628906 379.886719 371.632812 380.269531 369.414062 C 380.203125 369.410156 380.160156 369.378906 380.121094 369.347656 C 380.121094 369.332031 380.121094 369.296875 380.121094 369.289062 C 380.113281 369.28125 380.101562 369.277344 380.097656 369.265625 C 380.089844 369.253906 380.105469 369.230469 380.097656 369.222656 C 380.089844 369.214844 380.078125 369.226562 380.074219 369.222656 C 380.070312 369.214844 380.078125 369.207031 380.074219 369.199219 C 380.070312 369.1875 380.054688 369.183594 380.050781 369.175781 C 380.042969 369.164062 380.058594 369.140625 380.050781 369.128906 C 380.046875 369.121094 380.03125 369.117188 380.027344 369.105469 C 380.019531 369.089844 380.035156 369 380.027344 368.992188 C 380.023438 368.988281 380.011719 368.996094 380.003906 368.992188 C 379.992188 368.980469 380.015625 368.933594 380.003906 368.921875 C 380 368.917969 379.988281 368.929688 379.980469 368.921875 C 379.972656 368.914062 379.992188 368.886719 379.980469 368.878906 C 379.976562 368.871094 379.964844 368.882812 379.960938 368.878906 C 379.957031 368.875 379.960938 368.867188 379.960938 368.863281 C 380.019531 368.882812 380.058594 368.890625 380.144531 368.917969 C 379.910156 368.324219 379.859375 367.542969 379.148438 367.425781 C 379 367.835938 378.382812 367.636719 378.277344 367.300781 C 378.492188 367.308594 378.597656 367.207031 378.652344 367.054688 C 377.738281 365.722656 374.339844 365.832031 372.933594 366.679688 C 372.035156 366.378906 371.449219 365.761719 370.074219 365.933594 C 368.289062 363.089844 374.054688 360.492188 374.550781 358.105469 C 374.449219 358.097656 374.355469 358.085938 374.269531 358.070312 C 374.269531 358.054688 374.269531 358.042969 374.269531 358.03125 C 374.289062 358.03125 374.320312 358.046875 374.332031 358.03125 C 374.347656 358.015625 374.320312 357.980469 374.332031 357.964844 C 374.363281 357.9375 374.425781 357.984375 374.464844 357.964844 C 374.476562 357.960938 374.523438 357.90625 374.558594 357.871094 C 376.234375 358.308594 378.722656 356.726562 381.015625 357.109375 C 381.230469 357.035156 381.007812 356.519531 381.265625 356.488281 C 382.554688 357.023438 384.371094 356.515625 385.492188 356.113281 C 385.40625 355.871094 384.796875 356.144531 384.746094 355.867188 C 385.246094 355.78125 385.457031 355.984375 385.863281 355.988281 C 387.296875 354.691406 390.304688 354.871094 392.203125 354.621094 C 392.242188 354.957031 391.683594 355.332031 392.078125 355.617188 C 392.230469 355.140625 392.753906 354.390625 393.199219 354.621094 C 393.09375 354.933594 392.855469 355.109375 392.824219 355.492188 C 392.996094 357.851562 393.652344 359.71875 394.5625 361.335938 C 394.796875 361.351562 394.980469 361.414062 395.0625 361.582031 C 396.113281 365.375 397.667969 368.671875 401.648438 369.539062 C 402.851562 372.105469 405.304688 373.425781 407.617188 374.882812 C 407.554688 376.0625 408.726562 376.007812 409.230469 376.621094 C 409.464844 379.671875 409.363281 383.875 405.75 383.832031 C 405.472656 383.53125 405.183594 383.238281 404.878906 382.960938 C 403.914062 382.949219 403.191406 383.175781 402.394531 383.335938 C 402.277344 383.566406 402.765625 383.75 402.394531 383.832031 C 400.574219 382.886719 398.21875 384.800781 398.914062 386.691406 C 398.234375 386.976562 397.859375 387.671875 398.292969 388.429688 C 397.933594 388.609375 397.394531 388.609375 397.421875 389.175781 C 397.683594 389.476562 397.976562 389.066406 398.167969 389.300781 C 398.230469 390.148438 399.054688 390.234375 399.660156 390.542969 C 399.953125 390.503906 399.734375 389.953125 400.15625 390.046875 C 399.898438 390.320312 400.058594 390.875 400.28125 391.039062 C 400.644531 391.046875 400.980469 391.03125 401.152344 390.851562 C 401.167969 390.851562 401.1875 390.847656 401.199219 390.851562 C 401.226562 390.867188 401.238281 390.902344 401.265625 390.917969 C 401.304688 390.9375 401.363281 390.886719 401.394531 390.917969 C 401.410156 390.933594 401.378906 390.96875 401.394531 390.980469 C 401.402344 390.992188 401.464844 390.988281 401.527344 390.980469 C 401.378906 391.066406 401.277344 391.226562 401.277344 391.535156 C 402.039062 391.609375 404.128906 392.136719 405.121094 391.046875 C 405.128906 391.046875 405.136719 391.046875 405.144531 391.046875 C 405.390625 391.125 405.535156 391.390625 405.75 391.164062 C 405.738281 391.066406 405.710938 390.992188 405.6875 390.917969 L 406.054688 390.917969 C 406.070312 390.917969 406.085938 390.917969 406.101562 390.917969 C 406.109375 390.957031 406.117188 390.992188 406.121094 391.039062 C 407.679688 390.980469 409.109375 390.796875 410.597656 390.667969 C 410.652344 390.546875 410.726562 390.441406 410.796875 390.335938 C 410.84375 390.335938 410.910156 390.335938 410.910156 390.335938 C 410.925781 390.320312 410.894531 390.285156 410.910156 390.269531 C 410.933594 390.25 411.019531 390.292969 411.039062 390.269531 C 411.054688 390.253906 411.023438 390.222656 411.039062 390.207031 C 411.054688 390.191406 411.085938 390.214844 411.105469 390.207031 C 411.375 390.070312 411.035156 390.210938 411.167969 390.074219 C 411.183594 390.0625 411.21875 390.089844 411.234375 390.074219 C 411.25 390.0625 411.21875 390.027344 411.234375 390.011719 C 411.25 389.996094 411.285156 390.027344 411.300781 390.011719 C 411.328125 389.980469 411.269531 389.914062 411.300781 389.882812 C 411.3125 389.867188 411.347656 389.898438 411.363281 389.882812 C 411.394531 389.851562 411.332031 389.78125 411.363281 389.753906 C 411.363281 389.75 411.367188 389.753906 411.371094 389.753906 C 411.425781 389.867188 411.515625 389.953125 411.714844 389.921875 C 411.730469 389.675781 411.792969 389.496094 411.871094 389.300781 L 412.011719 389.300781 C 412.027344 389.300781 412.046875 389.300781 412.0625 389.300781 C 412.027344 389.339844 412 389.382812 411.960938 389.421875 C 412.058594 389.824219 412.304688 390.070312 412.707031 390.167969 C 412.902344 389.90625 413.144531 389.691406 413.453125 389.546875 C 413.445312 388.777344 413.582031 387.65625 413.082031 388.054688 C 412.949219 387.589844 413.546875 387.859375 413.453125 387.433594 C 414.648438 384.113281 417.492188 382.441406 418.796875 379.230469 C 419.570312 378.347656 420.039062 377.15625 420.785156 376.246094 C 420.703125 375.222656 421.011719 374.554688 420.664062 373.882812 C 417.929688 371.945312 415.457031 368.25 413.703125 365.058594 C 413.453125 364.605469 413.074219 363.960938 412.957031 363.441406 C 412.917969 363.28125 413.210938 363.222656 413.203125 363.070312 C 413.183594 362.640625 412.699219 362.117188 412.957031 361.703125 C 413.238281 361.738281 413.421875 361.671875 413.453125 361.453125 C 413.269531 361.347656 413.1875 361.140625 413.207031 360.832031 C 414.8125 359.246094 416.527344 357.773438 417.804688 355.859375 C 419.667969 357.640625 422.019531 358.9375 424.890625 359.714844 C 425.21875 360.253906 425.589844 360.753906 426.382812 360.832031 C 427.894531 362.097656 428.953125 363.984375 430.605469 365.183594 C 432.484375 366.542969 434.984375 367.144531 437.070312 368.414062 C 437.253906 368.449219 437.480469 368.28125 437.640625 368.230469 C 437.648438 368.234375 437.65625 368.230469 437.660156 368.234375 C 437.683594 368.257812 437.636719 368.304688 437.660156 368.328125 C 437.691406 368.359375 437.753906 368.324219 437.800781 368.316406 C 437.742188 368.453125 437.535156 368.441406 437.441406 368.539062 C 438.488281 370.355469 440.425781 371.273438 441.917969 372.640625 C 442.96875 373.671875 442.550781 375.226562 443.160156 376.367188 C 443.417969 376.855469 444.089844 376.839844 444.652344 377.363281 C 445.648438 378.296875 445.507812 379.824219 446.640625 380.222656 C 447.003906 381.019531 447.761719 382.082031 447.386719 383.207031 C 447.03125 382.984375 446.804688 382.625 446.144531 382.707031 C 445.921875 382.851562 445.578125 383.136719 445.894531 383.453125 C 446.007812 383.5 446.078125 383.503906 446.128906 383.488281 L 446.128906 383.539062 C 446.148438 383.539062 446.128906 383.625 446.128906 383.601562 L 446.128906 383.859375 C 446.148438 383.859375 446.128906 383.949219 446.128906 383.925781 L 446.128906 383.859375 C 446.085938 383.859375 446.160156 383.960938 446.128906 383.992188 C 446.113281 384.007812 446.078125 383.976562 446.0625 383.992188 C 446.058594 383.992188 446.0625 383.996094 446.0625 384 C 445.910156 383.890625 445.738281 383.84375 445.554688 383.859375 C 444.742188 383.925781 443.742188 385.058594 443.410156 385.695312 C 443.417969 386.144531 443.722656 386.296875 443.785156 386.691406 C 443.277344 387.054688 442.835938 387.480469 442.914062 388.429688 C 442.960938 388.46875 443.023438 388.492188 443.085938 388.511719 C 443.085938 388.605469 443.082031 388.707031 443.085938 388.714844 C 443.097656 388.742188 443.136719 388.753906 443.148438 388.78125 C 443.160156 388.800781 443.140625 388.828125 443.148438 388.847656 C 443.164062 388.875 443.199219 388.882812 443.214844 388.910156 C 443.234375 388.949219 443.183594 389.007812 443.214844 389.039062 C 443.230469 389.054688 443.265625 389.023438 443.277344 389.039062 C 443.285156 389.042969 443.277344 389.058594 443.277344 389.066406 C 443.015625 389.355469 442.910156 389.714844 443.039062 390.171875 C 443.964844 390.613281 445.242188 391.324219 446.375 391.164062 C 446.378906 391.167969 446.382812 391.175781 446.386719 391.175781 C 446.40625 391.1875 446.550781 391.175781 446.582031 391.175781 L 446.96875 391.175781 C 446.96875 391.15625 447.054688 391.175781 447.035156 391.175781 C 447.0625 391.164062 447.070312 391.125 447.097656 391.113281 C 447.113281 391.105469 447.125 391.109375 447.140625 391.113281 C 447.140625 391.128906 447.140625 391.144531 447.140625 391.164062 C 448.882812 390.875 449.601562 389.984375 451.117188 390.292969 C 451.167969 390.058594 451.164062 389.757812 451.492188 389.796875 C 451.546875 390.03125 451.320312 390.546875 451.738281 390.417969 C 451.925781 389.886719 452.433594 389.679688 452.644531 389.167969 L 452.730469 389.167969 C 452.753906 389.167969 452.78125 389.183594 452.796875 389.167969 C 452.8125 389.15625 452.78125 389.121094 452.796875 389.105469 C 452.820312 389.082031 452.890625 389.101562 452.941406 389.105469 C 452.847656 389.296875 452.808594 389.523438 452.855469 389.796875 C 453.515625 389.832031 453.230469 388.929688 453.851562 388.925781 C 453.832031 389.234375 453.824219 389.527344 454.097656 389.546875 C 454.710938 388.683594 455.769531 388.613281 455.960938 387.558594 C 456.3125 385.664062 453.640625 383.96875 454.472656 382.089844 C 453.507812 381.601562 454.027344 379.632812 453.476562 378.734375 C 454.148438 374.988281 452.671875 370.953125 449.972656 370.019531 C 449.957031 370.003906 449.945312 369.984375 449.929688 369.976562 C 449.902344 369.960938 449.867188 369.976562 449.835938 369.976562 C 449.804688 369.945312 449.785156 369.902344 449.746094 369.882812 C 449.71875 369.871094 449.679688 369.898438 449.652344 369.882812 C 449.546875 369.828125 449.488281 369.667969 449.382812 369.613281 C 448.328125 368.355469 446.542969 367.378906 446.265625 365.804688 C 444.949219 365.136719 444.648438 363.449219 443.65625 362.449219 C 442.355469 356.578125 440.015625 352.339844 438.0625 347.285156 C 438.105469 343.460938 435.632812 340.699219 434.460938 337.34375 C 436.855469 337.886719 439.34375 337.597656 441.792969 338.335938 C 443.5 338.140625 445.433594 338.203125 447.011719 338.214844 C 447.378906 337.796875 447.964844 337.699219 448.503906 337.589844 C 451.785156 336.933594 454.523438 335.585938 457.082031 333.988281 C 457.949219 332.984375 458.691406 331.210938 459.566406 330.632812 C 459.761719 329.066406 460.484375 327.476562 460.5625 325.660156 C 460.859375 318.742188 453.941406 312.59375 448.253906 311.242188 C 446.601562 310.847656 444.992188 310.910156 443.65625 309.75 C 442.730469 309.808594 442.5 309.585938 441.667969 309.375 C 441.621094 309.589844 441.851562 309.695312 441.667969 309.75 C 441.039062 309.261719 439.503906 309.542969 439.554688 309.003906 C 438.632812 309.355469 436.957031 308.558594 436.324219 309.003906 C 436.398438 309.21875 436.914062 308.992188 436.945312 309.253906 C 434.5 309.664062 432.746094 310.769531 431.105469 311.988281 C 431.375 311.996094 431.90625 311.644531 431.972656 311.863281 C 430.59375 313.007812 429.140625 314.082031 427.871094 315.34375 C 428.109375 315.335938 428.386719 315.238281 428.6875 315.109375 C 428.691406 315.117188 428.695312 315.128906 428.6875 315.136719 C 428.675781 315.144531 428.652344 315.125 428.640625 315.136719 C 428.628906 315.144531 428.652344 315.171875 428.640625 315.183594 C 428.621094 315.203125 428.570312 315.160156 428.550781 315.183594 C 428.539062 315.191406 428.5625 315.214844 428.550781 315.226562 C 428.539062 315.238281 428.515625 315.214844 428.503906 315.226562 C 428.496094 315.238281 428.515625 315.261719 428.503906 315.273438 C 428.496094 315.285156 428.46875 315.261719 428.457031 315.273438 C 428.449219 315.285156 428.46875 315.308594 428.457031 315.316406 C 428.4375 315.339844 428.390625 315.296875 428.367188 315.316406 C 428.355469 315.328125 428.375 315.351562 428.367188 315.363281 C 428.359375 315.382812 428.332031 315.390625 428.320312 315.410156 C 428.3125 315.425781 428.320312 315.441406 428.320312 315.457031 L 428.320312 315.671875 C 427.726562 315.777344 427.1875 315.945312 427.128906 316.585938 C 427.339844 316.480469 427.613281 316.375 427.910156 316.28125 C 427.925781 316.273438 427.9375 316.269531 427.953125 316.265625 C 427.957031 316.269531 427.957031 316.277344 427.953125 316.28125 C 427.945312 316.292969 427.921875 316.269531 427.910156 316.28125 C 427.898438 316.292969 427.917969 316.3125 427.910156 316.324219 C 427.898438 316.34375 427.875 316.351562 427.863281 316.371094 C 427.851562 316.398438 427.886719 316.441406 427.863281 316.464844 C 427.851562 316.472656 427.828125 316.453125 427.816406 316.464844 C 427.808594 316.472656 427.828125 316.5 427.816406 316.507812 C 427.808594 316.519531 427.785156 316.5 427.773438 316.507812 C 427.769531 316.527344 427.765625 316.554688 427.773438 316.554688 C 427.785156 316.554688 427.761719 316.519531 427.773438 316.507812 C 427.773438 316.480469 427.773438 316.464844 427.726562 316.554688 C 427.71875 316.574219 427.734375 316.683594 427.726562 316.691406 C 427.714844 316.703125 427.691406 316.679688 427.679688 316.691406 C 427.664062 316.707031 427.664062 316.71875 427.667969 316.722656 C 427.109375 316.757812 426.804688 316.8125 426.632812 317.457031 C 427.058594 317.234375 427.632812 317.164062 427.859375 316.738281 L 428.042969 316.738281 C 428.101562 316.957031 428.089844 317.03125 428 317.332031 C 427.390625 317.632812 426.46875 317.625 426.257812 318.328125 C 427.667969 317.746094 428.390625 317.09375 430.359375 317.582031 C 430.15625 318.148438 430.964844 317.972656 430.609375 318.328125 C 437.585938 320.269531 439.410156 314.441406 445.648438 314.472656 C 446.183594 313.992188 447.382812 314.070312 448.382812 314.347656 C 451.832031 315.3125 456.980469 320.152344 457.457031 324.789062 C 457.730469 327.441406 456.078125 329.832031 454.722656 330.878906 C 453.550781 331.785156 451.597656 332.621094 450.121094 332.871094 C 449.300781 333.007812 448.269531 332.847656 447.390625 332.992188 C 446.289062 333.175781 445.222656 333.417969 443.910156 333.242188 C 439.878906 332.707031 437.046875 330.359375 433.964844 328.519531 C 428.296875 325.132812 422.460938 321.734375 416.9375 319.445312 L 416.9375 319.074219 C 414.269531 319.144531 411.816406 318.03125 409.230469 317.582031 C 405.285156 316.890625 401.21875 316.644531 396.550781 317.082031 C 393.101562 317.40625 388.914062 317.871094 385.488281 318.078125 C 382.917969 318.234375 378.921875 318.328125 377.410156 316.960938 C 377.335938 316.894531 377.621094 316.71875 377.535156 316.585938 C 376.949219 315.707031 375.730469 315.285156 374.425781 315.21875 C 374.855469 314.945312 375.699219 315.136719 376.167969 315.21875 C 376.1875 314.535156 375.152344 314.910156 374.800781 314.597656 C 375.078125 314.292969 375.703125 313.21875 374.925781 312.980469 C 375.0625 313.328125 375.152344 314.035156 374.675781 314.101562 C 375.230469 312.476562 373.34375 311.804688 373.308594 310.746094 C 373.097656 310.496094 372.738281 310.402344 372.4375 310.246094 C 372.136719 308.695312 369.457031 308.539062 368.835938 309.875 C 369.683594 309.019531 371.800781 309.269531 371.941406 310.246094 C 371.539062 310.175781 371.363281 310.332031 371.070312 310.371094 C 370.570312 309.238281 369.066406 309.984375 368.210938 310.246094 C 368.148438 310.0625 368.027344 309.933594 367.964844 309.75 C 369.214844 309.265625 371.300781 307.5625 372.3125 309.375 C 371.84375 306.148438 368.195312 309.816406 366.347656 309.875 C 366.28125 309.691406 366.164062 309.5625 366.097656 309.375 C 366.382812 309.207031 366.566406 309.699219 366.597656 309.375 C 366.410156 309.230469 366.085938 309.222656 365.972656 309.003906 C 366.394531 309.046875 367.226562 309.320312 367.589844 309.003906 C 366.824219 308.691406 368.523438 308.921875 368.335938 308.382812 C 366.820312 308.738281 364.484375 308.796875 364.359375 307.386719 C 365.125 308.265625 367.949219 308.789062 368.710938 307.511719 C 367.628906 307.816406 365.945312 308.183594 365.105469 307.386719 C 366.613281 307.941406 367.699219 307.027344 369.082031 306.765625 C 367.410156 306.832031 364.570312 308.300781 364.359375 305.523438 C 364.605469 305.527344 364.515625 305.863281 364.855469 305.773438 C 365.382812 304.464844 366.511719 303.773438 366.097656 302.292969 C 365.761719 301.085938 364.578125 300.902344 363.613281 300.179688 C 363.683594 300.171875 363.746094 300.15625 363.816406 300.144531 L 363.855469 300.144531 C 363.859375 300.144531 363.863281 300.144531 363.867188 300.144531 C 363.875 300.140625 363.882812 300.132812 363.890625 300.132812 C 363.972656 300.113281 363.832031 300.167969 363.949219 300.121094 C 363.949219 300.121094 363.949219 300.121094 363.953125 300.121094 C 364.667969 299.851562 365.171875 299.453125 365.460938 298.960938 C 365.964844 298.792969 366.4375 298.871094 366.84375 299.683594 C 366.871094 299.199219 366.578125 299.039062 366.472656 298.6875 C 365.257812 298.015625 364.59375 299.214844 363.613281 299.308594 C 360.285156 299.632812 361.625 296.007812 359.882812 293.839844 C 360.101562 293.949219 360.269531 294.253906 360.382812 293.839844 C 359.628906 292.332031 358.542969 291.15625 356.910156 290.527344 C 356.90625 290.519531 356.910156 290.535156 356.902344 290.511719 C 356.890625 290.472656 356.921875 290.515625 356.886719 290.476562 C 356.882812 290.472656 356.890625 290.464844 356.886719 290.460938 C 356.878906 290.449219 356.863281 290.441406 356.855469 290.429688 C 356.851562 290.425781 356.859375 290.417969 356.855469 290.414062 C 356.847656 290.398438 356.832031 290.394531 356.820312 290.378906 C 356.820312 290.375 356.824219 290.367188 356.820312 290.363281 C 356.820312 290.355469 356.808594 290.355469 356.804688 290.347656 C 356.804688 290.34375 356.808594 290.335938 356.804688 290.332031 C 356.773438 290.265625 356.808594 290.347656 356.773438 290.316406 C 356.769531 290.3125 356.777344 290.304688 356.773438 290.300781 C 356.769531 290.292969 356.761719 290.289062 356.757812 290.28125 C 357.015625 290.355469 357.246094 290.421875 357.398438 290.484375 C 357.230469 289.449219 355.765625 289.714844 355.035156 289.242188 C 355.363281 289.277344 355.570312 289.195312 355.535156 288.867188 C 355.019531 288.726562 354.117188 289.164062 353.171875 288.992188 C 352.183594 288.53125 352.214844 287.050781 351.183594 286.628906 C 350.261719 284.144531 345.460938 283.269531 343.261719 285.039062 C 343.265625 285.003906 343.28125 284.964844 343.257812 284.941406 C 343.230469 284.910156 343.167969 284.960938 343.128906 284.941406 C 343.074219 284.914062 343.054688 284.839844 343 284.8125 C 342.964844 284.792969 342.910156 284.832031 342.878906 284.8125 C 343.585938 284.519531 344.234375 284.164062 344.96875 283.898438 C 344.84375 283.617188 344.289062 284.164062 344.097656 283.773438 C 344.390625 283.617188 344.992188 283.363281 344.71875 283.027344 C 344.078125 283.625 343.289062 284.085938 342.417969 284.308594 C 342.417969 284.300781 342.421875 284.296875 342.417969 284.296875 C 342.410156 284.289062 342.394531 284.300781 342.386719 284.296875 C 342.371094 284.289062 342.363281 284.273438 342.351562 284.261719 C 342.34375 284.25 342.335938 284.238281 342.320312 284.230469 C 342.3125 284.226562 342.296875 284.238281 342.289062 284.230469 C 342.28125 284.222656 342.296875 284.207031 342.289062 284.199219 C 342.28125 284.191406 342.265625 284.203125 342.257812 284.199219 C 342.242188 284.191406 342.238281 284.175781 342.226562 284.167969 C 342.894531 284.136719 343.464844 283.816406 343.851562 282.902344 C 343.042969 283.128906 342.320312 283.753906 341.363281 283.648438 C 340.898438 283.597656 340.664062 283.191406 340.246094 283.027344 C 339.53125 282.75 338.835938 282.617188 338.175781 282.625 C 336.804688 282.644531 335.605469 283.28125 334.785156 284.457031 L 334.648438 284.457031 C 334.640625 284.457031 334.625 284.453125 334.617188 284.457031 C 334.601562 284.464844 334.597656 284.484375 334.585938 284.488281 C 334.566406 284.5 334.539062 284.480469 334.519531 284.488281 C 334.976562 283.835938 335.503906 283.25 336.019531 282.652344 C 335.699219 282.5625 335.421875 282.53125 335.171875 282.550781 Z M 447.035156 391.179688 L 446.96875 391.179688 C 446.96875 391.199219 447.015625 391.1875 447.035156 391.179688 Z M 446.128906 383.605469 L 446.128906 383.539062 C 446.105469 383.539062 446.128906 383.582031 446.128906 383.605469 Z M 334.738281 345.539062 C 334.609375 345.019531 334.519531 344.472656 334.480469 343.882812 C 334.46875 343.875 334.460938 343.867188 334.453125 343.855469 C 334.433594 343.816406 334.484375 343.757812 334.453125 343.726562 C 334.4375 343.710938 334.40625 343.742188 334.390625 343.726562 C 334.375 343.710938 334.390625 343.683594 334.390625 343.660156 L 334.390625 342.882812 C 334.375 342.8125 334.367188 342.753906 334.351562 342.679688 C 333.441406 346.800781 334.890625 348.648438 334.738281 345.539062 Z M 335.230469 284.355469 C 335.230469 284.355469 335.230469 284.359375 335.230469 284.363281 C 335.230469 284.363281 335.222656 284.359375 335.21875 284.363281 C 335.222656 284.359375 335.226562 284.355469 335.230469 284.355469 Z M 315.632812 313.851562 C 314.285156 313.996094 312.960938 314.164062 312.527344 315.222656 C 313.535156 314.738281 314.613281 314.328125 315.632812 313.851562 Z M 428.089844 316.222656 C 428.089844 316.226562 428.09375 316.234375 428.089844 316.238281 C 428.082031 316.242188 428.0625 316.238281 428.046875 316.238281 C 428.0625 316.230469 428.074219 316.226562 428.089844 316.222656 Z M 327.441406 335.109375 C 327.414062 336.722656 327.871094 338.449219 328.0625 340.203125 C 327.375 339.019531 326.851562 336.800781 327.441406 335.109375 Z M 444.125 386.128906 C 444.144531 386.132812 444.171875 386.113281 444.183594 386.128906 C 444.195312 386.140625 444.1875 386.160156 444.183594 386.175781 C 444.175781 386.179688 444.164062 386.1875 444.15625 386.195312 C 444.148438 386.171875 444.132812 386.152344 444.125 386.128906 Z M 444.125 386.128906 " fill-opacity="1" fill-rule="evenodd"/></g></svg>