<svg xmlns="http://www.w3.org/2000/svg" xmlns:xlink="http://www.w3.org/1999/xlink" width="500" zoomAndPan="magnify" viewBox="0 0 375 374.999991" height="500" preserveAspectRatio="xMidYMid meet" version="1.0"><defs><clipPath id="75e400b87e"><path d="M 155 108.464844 L 180 108.464844 L 180 130 L 155 130 Z M 155 108.464844 " clip-rule="nonzero"/></clipPath><clipPath id="bbd9968855"><path d="M 110 128 L 206 128 L 206 258.464844 L 110 258.464844 Z M 110 128 " clip-rule="nonzero"/></clipPath><clipPath id="840bbdfa87"><path d="M 109.511719 158 L 113 158 L 113 172 L 109.511719 172 Z M 109.511719 158 " clip-rule="nonzero"/></clipPath><clipPath id="ae5662d625"><path d="M 25.566406 5 L 349.566406 5 L 349.566406 370 L 25.566406 370 Z M 25.566406 5 " clip-rule="nonzero"/></clipPath></defs><g clip-path="url(#75e400b87e)"><path fill="#ffffff" d="M 165.753906 118.933594 C 167.195312 118.628906 168.582031 118.109375 170.199219 118.039062 C 170.371094 118.03125 170.382812 118.074219 170.238281 118.164062 C 168.683594 119.113281 167.699219 119.742188 167.277344 120.046875 C 163.785156 122.589844 161.15625 125.804688 159.390625 129.6875 C 159.347656 129.789062 159.273438 129.851562 159.167969 129.882812 C 159.0625 129.914062 158.964844 129.898438 158.871094 129.839844 C 158.007812 129.269531 157.097656 128.746094 156.148438 128.269531 C 155.203125 127.792969 155.40625 125.644531 155.582031 124.824219 C 156.777344 119.324219 160.9375 114.792969 165.738281 112.113281 C 170.03125 109.714844 174.699219 108.507812 179.730469 108.492188 C 179.773438 108.492188 179.800781 108.515625 179.808594 108.558594 C 179.816406 108.597656 179.800781 108.628906 179.761719 108.644531 C 175.144531 110.433594 171.03125 113.019531 167.421875 116.398438 C 166.910156 116.878906 166.320312 117.675781 165.652344 118.789062 C 165.578125 118.914062 165.613281 118.964844 165.753906 118.933594 Z M 165.753906 118.933594 " fill-opacity="1" fill-rule="nonzero"/></g><path fill="#ffffff" d="M 220.628906 136.519531 C 220.597656 136.546875 220.585938 136.582031 220.59375 136.621094 C 220.601562 136.660156 220.621094 136.6875 220.660156 136.699219 C 226.882812 139.136719 232.574219 142.992188 236.859375 148.105469 C 243.382812 155.882812 246.246094 164.925781 245.453125 175.230469 C 245.238281 178.035156 244.414062 182.203125 244.164062 185.570312 C 243.875 189.542969 244.652344 193.742188 247.03125 197.058594 C 247.457031 197.652344 248.0625 198.386719 248.84375 199.253906 C 248.957031 199.378906 248.933594 199.410156 248.777344 199.355469 C 248.308594 199.175781 247.855469 198.789062 247.503906 198.601562 C 242.136719 195.789062 239.667969 191.242188 238.417969 185.527344 C 237.839844 182.894531 237.140625 180.292969 236.324219 177.726562 C 232.074219 164.367188 221.644531 154.617188 208.269531 150.492188 C 208.152344 150.457031 208.15625 150.421875 208.273438 150.394531 C 208.480469 150.347656 208.65625 150.34375 208.792969 150.386719 C 214.964844 152.257812 219.875 150.632812 223.523438 145.519531 C 223.574219 145.449219 223.570312 145.378906 223.515625 145.316406 C 223.457031 145.25 223.390625 145.238281 223.3125 145.277344 C 216.742188 148.871094 210.269531 145.632812 205.128906 141.246094 C 199.308594 136.28125 193.550781 131.113281 187.113281 126.941406 C 183.753906 124.765625 180.042969 123.496094 176.183594 123.921875 C 171.140625 124.476562 166.625 127.726562 162.914062 130.957031 C 162.902344 130.96875 162.894531 130.972656 162.882812 130.960938 C 162.867188 130.953125 162.867188 130.941406 162.878906 130.929688 C 165.570312 125.125 169.558594 121.296875 176.023438 120.191406 C 177.144531 120 178.261719 119.808594 179.382812 119.617188 C 181.800781 119.207031 183.851562 118.28125 185.53125 116.84375 C 188.03125 114.714844 189.617188 113.378906 190.289062 112.84375 C 193.5 110.277344 197.304688 109.011719 201.707031 109.050781 C 202.074219 109.054688 202.085938 109.121094 201.742188 109.253906 C 196.316406 111.3125 192.238281 113.960938 189.46875 119.242188 C 189.3125 119.542969 189.214844 119.832031 189.171875 120.105469 C 189.148438 120.238281 189.199219 120.28125 189.324219 120.234375 C 193.136719 118.753906 196.925781 117.792969 200.699219 117.359375 C 214.128906 115.8125 225.847656 119.421875 235.855469 128.195312 C 239.019531 130.964844 241.878906 134.007812 244.4375 137.320312 C 244.558594 137.476562 244.542969 137.496094 244.382812 137.375 C 237.671875 132.28125 227.355469 130.789062 220.628906 136.519531 Z M 220.628906 136.519531 " fill-opacity="1" fill-rule="nonzero"/><g clip-path="url(#bbd9968855)"><path fill="#ffffff" d="M 170.011719 152.964844 C 169.964844 152.722656 169.917969 152.722656 169.875 152.964844 C 168.71875 159.515625 167.480469 166.050781 166.164062 172.5625 C 165.304688 176.796875 164.183594 181.972656 161.941406 185.917969 C 160.691406 188.125 158.6875 190.175781 156.804688 192.03125 C 156.761719 192.074219 156.714844 192.085938 156.65625 192.0625 C 156.597656 192.042969 156.566406 192.003906 156.5625 191.941406 C 156.296875 189.445312 155.535156 184.527344 152.675781 183.6875 C 151.75 183.414062 150.316406 183.195312 149.207031 183.097656 C 145.457031 182.765625 141.613281 182.957031 137.675781 183.664062 C 133.296875 184.457031 129.875 185.089844 127.410156 185.570312 C 125.605469 185.917969 124.332031 186.300781 123.589844 186.710938 C 121.714844 187.75 120.300781 189.863281 119.492188 191.839844 C 119.46875 191.890625 119.433594 191.917969 119.378906 191.921875 C 119.324219 191.925781 119.28125 191.902344 119.253906 191.855469 C 117.019531 188.15625 114.84375 184.394531 112.726562 180.574219 C 111.632812 178.601562 111.660156 175.351562 113.917969 174.144531 C 115.460938 173.320312 117.488281 173.945312 118.882812 174.847656 C 120.859375 176.132812 123.386719 177.859375 126.464844 180.035156 C 126.964844 180.382812 127.902344 180.792969 129.28125 181.265625 C 130.996094 181.847656 132.375 181.542969 133.421875 180.351562 C 134.234375 179.421875 134.679688 178.816406 134.535156 177.578125 C 134.476562 177.046875 134.28125 176.941406 133.753906 176.925781 C 130.765625 176.832031 127.917969 176.15625 125.203125 174.890625 C 123.132812 173.925781 119.785156 171.886719 116.769531 170.894531 C 115.804688 170.578125 115.238281 170.035156 115.050781 169.078125 C 114.566406 166.601562 114.457031 164.421875 114.722656 162.546875 C 114.90625 161.222656 117.703125 159.144531 118.683594 158.527344 C 119.632812 157.925781 121.078125 158.183594 121.839844 157.875 C 122.371094 157.660156 123.164062 157.058594 124.226562 156.066406 C 124.5625 155.75 125.398438 155.269531 126.734375 154.625 C 127.953125 154.035156 130.332031 153.058594 133.863281 151.695312 C 136.402344 150.714844 137.9375 149.996094 140.058594 150.382812 C 141.855469 150.714844 143.441406 150.582031 144.808594 149.988281 C 146.535156 149.238281 148.316406 148.644531 150.152344 148.207031 C 150.785156 148.058594 151.144531 147.714844 151.230469 147.175781 C 151.253906 147.027344 151.230469 146.890625 151.15625 146.761719 C 151.082031 146.632812 150.976562 146.542969 150.839844 146.488281 C 148.605469 145.597656 146.386719 144.753906 144.179688 143.953125 C 142.257812 143.257812 140.71875 143.277344 139.261719 144.742188 C 138.582031 145.429688 137.699219 146.847656 136.652344 147.570312 C 136.113281 147.945312 135.726562 148.175781 135.484375 148.265625 C 130.074219 150.261719 126.292969 151.714844 124.140625 152.621094 C 123.535156 152.878906 122.617188 153.367188 121.394531 154.089844 C 120.917969 154.371094 120.433594 154.546875 119.949219 154.617188 C 117.511719 154.957031 115.085938 154.886719 112.667969 154.40625 C 111.449219 154.164062 109.515625 152.722656 110.746094 151.417969 C 111.273438 150.851562 113.570312 150.035156 114.292969 149.738281 C 120.367188 147.207031 126.460938 144.714844 132.566406 142.261719 C 133.238281 141.992188 133.789062 141.472656 134.109375 140.753906 C 135.132812 138.460938 135.550781 136.855469 137.746094 136.015625 C 141.40625 134.621094 145.097656 133.320312 148.820312 132.113281 C 151.417969 131.269531 153.289062 131.179688 155.570312 132.4375 C 157.820312 133.675781 160.152344 134.820312 162.480469 136.023438 C 162.75 136.164062 162.996094 136.128906 163.214844 135.921875 C 165.824219 133.449219 168.769531 131.324219 172.058594 129.539062 C 177.097656 126.800781 182.949219 127.5 184.148438 134.046875 C 185.015625 138.777344 183.339844 143.597656 179.523438 146.488281 C 178.785156 147.046875 177.796875 147.277344 177.179688 146.492188 C 176.578125 145.730469 176.109375 144.980469 175.777344 144.246094 C 175.625 143.90625 175.664062 143.589844 175.894531 143.296875 C 177.234375 141.609375 179.789062 138.601562 178.5 136.203125 C 177.46875 134.292969 175.046875 134.789062 173.492188 135.933594 C 171.332031 137.523438 168.90625 140.324219 168.492188 143.027344 C 168.359375 143.894531 168.789062 144.410156 169.410156 144.929688 C 171.132812 146.371094 172.507812 147.472656 173.53125 148.238281 C 176.484375 150.453125 179.8125 151.324219 183.519531 150.851562 C 186.292969 150.496094 189.351562 148.695312 187.421875 145.40625 C 187.378906 145.328125 187.398438 145.300781 187.480469 145.316406 C 199.453125 147.878906 204.839844 162.308594 205.785156 172.960938 C 205.835938 173.003906 205.859375 173.046875 205.847656 173.09375 C 205.847656 173.113281 205.835938 173.125 205.816406 173.128906 C 205.800781 173.128906 205.785156 173.125 205.777344 173.105469 C 202.851562 167.242188 197.292969 163.433594 190.671875 163.078125 C 190.472656 163.070312 190.4375 163.144531 190.554688 163.300781 C 194.011719 167.886719 195.972656 172.988281 196.460938 178.679688 C 197.378906 189.414062 194.253906 198.878906 187.074219 207.074219 C 184.929688 209.523438 182.765625 211.957031 180.582031 214.378906 C 177.863281 217.386719 175.699219 220.714844 174.089844 224.355469 C 174.019531 224.507812 173.992188 224.503906 174.007812 224.335938 C 174.285156 221.027344 174.941406 218.179688 176.214844 214.992188 C 176.859375 213.386719 177.632812 211.691406 177.953125 210.113281 C 178.539062 207.257812 178.320312 204.4375 177.296875 201.652344 C 177.253906 201.527344 177.21875 201.53125 177.195312 201.660156 C 176.699219 204.605469 175.855469 207.242188 173.96875 209.523438 C 173.144531 210.523438 171.738281 211.753906 169.753906 213.21875 C 166.851562 215.355469 164.355469 217.324219 162.261719 219.128906 C 155.425781 225.023438 152.433594 233.28125 155.941406 241.976562 C 158.613281 248.597656 163.511719 254 169.125 258.324219 C 169.144531 258.34375 169.148438 258.363281 169.136719 258.386719 C 169.125 258.414062 169.101562 258.421875 169.078125 258.414062 C 158.535156 254 148.277344 247.253906 143.007812 236.742188 C 138.929688 228.613281 140.066406 219.164062 145.722656 212.117188 C 150.125 206.632812 156.058594 202.773438 162.058594 199.257812 C 166.9375 196.402344 172.058594 193.542969 176.355469 189.839844 C 180.710938 186.085938 182.648438 181.285156 182.164062 175.4375 C 182.160156 175.429688 182.15625 175.425781 182.148438 175.425781 C 182.140625 175.421875 182.136719 175.425781 182.132812 175.433594 C 179.871094 180.839844 176.398438 185.3125 171.71875 188.851562 C 168.660156 191.164062 165.445312 193.289062 162.066406 195.230469 C 161.894531 195.328125 161.875 195.304688 162.007812 195.160156 C 165.335938 191.496094 167.945312 186.980469 169.425781 182.324219 C 169.890625 180.867188 170.277344 179.042969 170.582031 176.84375 C 171.707031 168.8125 171.515625 160.851562 170.011719 152.964844 Z M 170.011719 152.964844 " fill-opacity="1" fill-rule="nonzero"/></g><path fill="#ffffff" d="M 144.078125 145.726562 C 144.738281 145.953125 145.417969 146.375 146.117188 146.996094 C 146.1875 147.054688 146.191406 147.121094 146.132812 147.191406 C 145.402344 148.082031 144.207031 148.824219 143.035156 148.386719 C 142.523438 148.195312 140.96875 147.3125 141.777344 146.585938 C 142.507812 145.929688 143.023438 145.367188 144.078125 145.726562 Z M 144.078125 145.726562 " fill-opacity="1" fill-rule="nonzero"/><g clip-path="url(#840bbdfa87)"><path fill="#ffffff" d="M 109.847656 158.453125 C 110.621094 159.230469 111.269531 160.097656 111.796875 161.054688 C 111.988281 161.402344 112.082031 161.800781 112.082031 162.257812 C 112.082031 165.152344 112.371094 168.019531 112.960938 170.855469 C 112.984375 170.976562 112.9375 171.058594 112.820312 171.101562 L 112.117188 171.351562 C 111.996094 171.394531 111.890625 171.367188 111.800781 171.273438 C 111.050781 170.496094 110.667969 168.367188 110.453125 167.304688 C 110.289062 166.484375 110.183594 165.425781 110.136719 164.128906 C 110.070312 162.261719 109.972656 160.402344 109.847656 158.542969 C 109.847656 158.511719 109.847656 158.480469 109.847656 158.453125 Z M 109.847656 158.453125 " fill-opacity="1" fill-rule="nonzero"/></g><path fill="#ffffff" d="M 114.503906 212.710938 C 114.390625 212.878906 114.234375 213.277344 114.03125 213.503906 C 113.972656 213.570312 113.949219 213.558594 113.960938 213.472656 C 114.246094 211.160156 114.582031 209.40625 114.96875 208.207031 C 116.703125 202.828125 120.082031 198.847656 125.113281 196.269531 C 127.453125 195.070312 131.257812 193.332031 134.1875 191.597656 C 136.453125 190.261719 138.503906 188.910156 140.96875 187.957031 C 141.019531 187.9375 141.0625 187.945312 141.101562 187.984375 C 141.140625 188.023438 141.152344 188.070312 141.132812 188.121094 C 139.421875 192.90625 136.316406 195.875 132.109375 198.707031 C 127.789062 201.609375 123.453125 204.191406 119.257812 207.542969 C 117.40625 209.023438 115.824219 210.746094 114.503906 212.710938 Z M 114.503906 212.710938 " fill-opacity="1" fill-rule="nonzero"/><path fill="#ffffff" d="M 231.84375 204.617188 C 232.609375 206.21875 233.605469 208.023438 234.832031 210.035156 C 237.480469 214.390625 240.359375 217.71875 244.40625 220.652344 C 245.128906 221.175781 245.847656 221.703125 246.566406 222.230469 C 246.652344 222.292969 246.644531 222.324219 246.535156 222.316406 C 242.570312 222.074219 239.007812 221.128906 235.84375 219.480469 C 231.394531 217.164062 229.738281 212.453125 229.167969 207.789062 C 228.613281 203.261719 227.6875 198.777344 225.410156 194.523438 C 225.402344 194.511719 225.40625 194.5 225.417969 194.496094 C 225.425781 194.488281 225.4375 194.488281 225.445312 194.496094 C 227.972656 197.613281 230.105469 200.988281 231.84375 204.617188 Z M 231.84375 204.617188 " fill-opacity="1" fill-rule="nonzero"/><path fill="#ffffff" d="M 129.632812 222.839844 C 127.023438 230.878906 128.46875 238.246094 133.964844 244.945312 C 134.417969 245.496094 135.09375 246.089844 135.585938 246.703125 C 135.695312 246.835938 135.675781 246.855469 135.53125 246.765625 C 130.636719 243.652344 124.714844 238.207031 123.925781 232.261719 C 123.621094 229.964844 123.648438 227.496094 124.007812 224.84375 C 124.679688 219.867188 127.164062 216.125 131.117188 213.003906 C 133.859375 210.835938 136.769531 208.957031 139.847656 207.363281 C 139.867188 207.347656 139.886719 207.351562 139.902344 207.371094 C 139.917969 207.394531 139.914062 207.410156 139.890625 207.425781 C 135.441406 211.582031 131.519531 217.023438 129.632812 222.839844 Z M 129.632812 222.839844 " fill-opacity="1" fill-rule="nonzero"/><g clip-path="url(#ae5662d625)"><path fill="#0e2445" d="M 349.410156 149.992188 C 348.953125 145.167969 347.996094 140.757812 346.179688 136.238281 C 340.476562 122.023438 325.109375 103.613281 313.128906 93.707031 C 308.628906 89.980469 303.941406 86.652344 298.929688 83.652344 C 309.808594 85.894531 320.164062 89.613281 327.386719 98.417969 C 323.546875 83.285156 315.488281 69.910156 301.761719 61.757812 C 296.898438 58.871094 291.578125 56.804688 286.085938 55.488281 C 298.28125 53.875 305.699219 53.09375 317.121094 47.328125 C 313.949219 47.863281 310.921875 48.035156 307.734375 47.507812 C 289.691406 44.527344 272.972656 24.378906 253.609375 28.070312 C 256.101562 23.417969 259.726562 20.605469 264.765625 19.066406 C 267.058594 18.367188 269.375 18.074219 271.753906 17.8125 C 268.382812 16.871094 265.039062 15.902344 261.589844 15.292969 C 244.980469 12.355469 227.246094 14.542969 212.503906 22.980469 C 211.957031 23.289062 211.4375 23.636719 210.933594 24.003906 C 214.285156 16.550781 218.328125 10.289062 226.308594 7.253906 C 227.441406 6.824219 228.570312 6.414062 229.710938 6 C 217.140625 5 204.394531 6.277344 194.4375 14.785156 C 191.652344 17.164062 189.410156 19.894531 187.472656 22.996094 C 180.011719 13.121094 171.640625 7.675781 159.210938 5.96875 C 156.65625 5.617188 154.109375 5.539062 151.53125 5.511719 C 149.277344 5.609375 147.046875 5.714844 144.8125 6.007812 C 152.726562 8.644531 158.496094 12.402344 162.34375 20.050781 C 163.019531 21.382812 163.570312 22.769531 164.117188 24.160156 C 147.839844 14.632812 124.066406 11.347656 105.683594 16.210938 C 104.28125 16.578125 102.890625 16.984375 101.515625 17.421875 C 107.054688 17.828125 112.050781 18.722656 115.84375 23.191406 C 117.128906 24.703125 118.160156 26.484375 118.859375 28.339844 C 102.84375 25.535156 83.40625 43.691406 67.730469 47.261719 C 64.867188 47.914062 62.132812 47.898438 59.222656 47.832031 C 69.449219 53.199219 75.25 54.8125 86.882812 54.617188 C 70.847656 61.847656 56.375 72.539062 49.988281 89.621094 C 49.054688 92.136719 48.441406 94.722656 47.839844 97.324219 C 54.292969 90.28125 62.703125 86.328125 72.199219 85.253906 C 68.203125 87.90625 64.558594 91.160156 60.996094 94.363281 C 46.34375 107.566406 30.261719 126.394531 26.136719 146.1875 C 25.917969 147.226562 25.753906 148.277344 25.589844 149.324219 C 28.046875 146.210938 30.660156 143.28125 33.703125 140.710938 C 43.757812 132.21875 59.515625 124.789062 72.410156 122.253906 C 51.152344 134.59375 36.160156 149.042969 29.644531 173.535156 C 26.964844 183.597656 26.25 193.71875 26.664062 204.097656 C 34.238281 187.585938 44.210938 171.160156 58.613281 159.707031 C 54.683594 165.410156 50.988281 171.167969 48.042969 177.449219 C 39.121094 196.484375 37.3125 218.207031 41.089844 238.753906 C 43.179688 250.113281 47.644531 261.535156 53.746094 271.34375 C 52.851562 254.449219 54.152344 239.277344 66.03125 226.121094 C 68.171875 223.753906 70.578125 221.386719 73.183594 219.523438 C 64.101562 235.410156 64.289062 257.1875 69.074219 274.507812 C 73.660156 291.113281 83.757812 305.375 96.675781 316.550781 C 93.03125 303.015625 93.347656 291.460938 96.757812 277.894531 C 98.773438 297.214844 107.339844 310.921875 122.238281 323.027344 C 126.492188 326.484375 131.039062 329.542969 135.324219 332.953125 C 143.640625 339.558594 153.972656 349.515625 156.8125 359.960938 C 159.648438 349.328125 159.765625 338.761719 156.492188 328.183594 C 166.890625 338.800781 183.84375 355.429688 187.398438 369.949219 C 189.628906 358.886719 201.230469 345.992188 209.324219 338.257812 C 212.269531 335.441406 215.335938 332.902344 218.582031 330.445312 C 216.710938 340.242188 215.019531 350.972656 219.191406 360.464844 C 223.828125 341.28125 240.179688 334.53125 253.667969 322.878906 C 261.273438 316.308594 267.921875 308.074219 272.070312 298.890625 C 274.574219 293.34375 276.625 287.078125 276.984375 280.960938 C 282.222656 293.878906 281.097656 304.871094 277.789062 318.015625 C 280.292969 315.492188 282.410156 312.441406 284.800781 309.773438 C 289.398438 304.640625 294.277344 299.921875 298.019531 294.082031 C 304.773438 283.546875 308.132812 264.339844 308.109375 251.8125 C 308.082031 241.449219 306 232.09375 302.714844 222.3125 C 312.191406 229.132812 319.113281 237.902344 320.992188 249.640625 C 322.117188 256.667969 321.757812 264.046875 320.855469 271.09375 C 323.335938 266.59375 325.800781 262.0625 327.828125 257.328125 C 336.53125 237.023438 338.851562 214.796875 332.652344 193.433594 C 330.21875 185.046875 326.28125 177.171875 321.375 169.964844 C 319.382812 167.035156 317.179688 164.246094 315.210938 161.300781 C 318.015625 163.546875 320.886719 165.75 323.539062 168.191406 C 334.410156 178.1875 343.324219 190.847656 348.3125 204.792969 C 348.246094 197.695312 348.066406 190.523438 347.042969 183.492188 C 344.480469 166.011719 336.507812 149.113281 323.847656 136.707031 C 317.894531 130.875 311.921875 127.035156 304.828125 122.757812 C 308.492188 123.765625 312.25 124.675781 315.828125 125.953125 C 329.03125 130.65625 341.046875 138.652344 349.410156 150 Z M 202.765625 49.726562 C 211.925781 38.753906 223.324219 33.441406 237.445312 32.179688 C 241.472656 31.539062 245.988281 32.179688 249.917969 33.105469 C 241.261719 34.269531 236.167969 38.152344 230.839844 44.886719 C 233.289062 43.617188 235.941406 42.578125 238.5625 41.730469 C 251.570312 37.550781 265.292969 39.761719 277.285156 45.878906 C 253.902344 41.496094 236.183594 47.101562 218.132812 62.296875 C 213.414062 66.265625 209.640625 71.007812 204.328125 74.277344 C 204.710938 72.789062 205.191406 71.335938 205.671875 69.871094 C 208.648438 60.695312 218.636719 50.476562 225.902344 44.359375 C 211.957031 49.515625 198.925781 68 191.703125 80.640625 C 192.207031 67.078125 193.695312 60.613281 202.773438 49.742188 Z M 187.367188 100.660156 C 189.660156 94.363281 190.882812 89.6875 196.421875 85.328125 C 201.230469 81.542969 208.257812 78.703125 214.449219 79.503906 C 227.238281 81.144531 236.851562 92.167969 244.289062 101.742188 C 241.992188 102.371094 239.585938 102.695312 237.242188 103.109375 C 243.074219 106.933594 252.699219 118.09375 255.15625 124.335938 C 255.695312 125.703125 255.953125 126.988281 255.863281 128.460938 C 255.621094 132.503906 254.015625 136.804688 253.058594 140.742188 C 252.195312 144.289062 251.570312 148.015625 250.382812 151.457031 C 249.941406 152.734375 249.316406 154.019531 248.453125 155.070312 C 246.996094 156.851562 244.800781 157.890625 242.921875 159.175781 C 237.8125 162.683594 232.921875 168.132812 230.484375 173.851562 C 226.488281 169.199219 225.332031 167.613281 225.074219 161.234375 C 222.394531 169.648438 225.457031 174.171875 228.496094 181.800781 C 229.652344 184.699219 230.417969 187.640625 231.164062 190.660156 C 222.0625 190.277344 216.011719 191.816406 207.972656 196.019531 C 216.757812 194.425781 222.265625 193.273438 231.386719 194.5 C 231.574219 196.949219 231.457031 199.398438 231.199219 201.839844 C 224.414062 200.453125 218.191406 200.414062 211.355469 201.300781 C 217.988281 202.667969 224.511719 203.757812 231.027344 205.636719 C 230.425781 208.515625 229.683594 211.0625 228.449219 213.722656 C 222.003906 210.460938 215 208.582031 207.914062 207.371094 C 213.863281 210.828125 220.175781 213.535156 226.097656 217.117188 C 224.414062 219.785156 222.566406 222.527344 220.019531 224.421875 C 219.140625 224.941406 218.214844 225.316406 217.269531 225.707031 C 206.320312 224.503906 195.25 216.585938 187.390625 209.304688 C 184.835938 212.226562 182.070312 214.535156 178.855469 216.71875 C 174.421875 219.726562 162.914062 226.257812 157.429688 225.015625 C 154.0625 224.25 151.125 219.636719 149.390625 216.914062 C 152.867188 214.742188 156.566406 212.8125 160.21875 210.957031 C 162.503906 209.792969 164.882812 208.726562 166.996094 207.273438 C 160.144531 208.492188 153.644531 210.535156 147.261719 213.285156 C 146.234375 210.640625 145.25 207.851562 144.625 205.074219 C 151.066406 203.742188 157.527344 202.578125 163.976562 201.308594 C 157.242188 200.445312 150.488281 200.136719 143.835938 201.722656 C 143.519531 199.21875 143.492188 196.679688 143.542969 194.160156 C 151.554688 193.394531 159.089844 194.273438 166.914062 196.019531 C 160.261719 191.53125 151.824219 190.390625 144.007812 190.15625 C 144.851562 186.746094 145.851562 183.4375 147.105469 180.15625 C 149.757812 173.210938 152.109375 168.949219 149.382812 161.570312 C 149.210938 167.554688 147.828125 169.582031 143.730469 173.738281 C 141.132812 168.042969 137.613281 163.375 132.609375 159.542969 C 130.707031 158.078125 128.394531 156.679688 126.945312 154.742188 C 126.125 153.644531 125.5625 152.425781 125.125 151.132812 C 123.726562 147.039062 122.960938 142.664062 121.820312 138.480469 C 120.941406 135.285156 119.648438 132.105469 118.964844 128.875 C 118.777344 127.972656 118.691406 127.058594 118.828125 126.140625 C 119.859375 119.289062 132.136719 107.082031 137.554688 103.085938 C 135.238281 102.539062 132.851562 102.175781 130.511719 101.742188 C 131.023438 100.832031 131.648438 99.945312 132.273438 99.109375 C 138.898438 90.265625 149.449219 81.023438 160.757812 79.445312 C 165.800781 78.925781 170.941406 80.753906 175.230469 83.285156 C 182.03125 87.304688 185.4375 93.152344 187.367188 100.667969 Z M 257.253906 149.601562 C 257.613281 150.035156 257.710938 150.398438 257.882812 150.929688 C 263.804688 169.207031 245.621094 181.402344 238.300781 195.90625 C 237.203125 191.988281 236.144531 187.886719 236.324219 183.769531 C 236.769531 173.144531 246.558594 167.808594 252.242188 160.136719 C 254.660156 156.875 256.101562 153.457031 257.253906 149.59375 Z M 212.480469 239.949219 C 211.363281 247.417969 208.445312 252.210938 202.5625 256.9375 C 202.839844 253.074219 203.101562 249.460938 202.164062 245.660156 C 200.300781 253.261719 197.324219 258.9375 191.191406 263.882812 C 191.386719 262.039062 191.304688 260.445312 190.824219 258.644531 C 190.394531 257.019531 189.621094 253.933594 188.121094 253.058594 C 187.902344 253.554688 187.832031 254.074219 187.734375 254.59375 L 187.277344 254.839844 C 187 254.226562 186.8125 253.5625 186.59375 252.925781 C 186.234375 252.976562 186.074219 253.164062 185.835938 253.457031 C 183.902344 255.832031 183.601562 261.085938 183.769531 263.957031 C 177.871094 259.46875 174.578125 252.960938 173.308594 245.777344 C 172.257812 250.015625 172.25 253.765625 173.285156 258.019531 C 166.914062 253 164.191406 247.898438 162.683594 239.949219 C 161.105469 244.351562 161.34375 248.394531 161.78125 252.960938 C 158.976562 250.21875 156.460938 245.898438 156.121094 241.929688 C 155.867188 239.039062 156.988281 236.324219 158.8125 234.117188 C 164.410156 227.351562 178.546875 222.761719 187.195312 222.011719 C 190.222656 221.914062 193.257812 222.996094 196.121094 223.84375 C 202.367188 225.699219 208.746094 227.488281 213.976562 231.578125 C 216.636719 233.664062 218.808594 236.355469 219.140625 239.828125 C 219.628906 244.882812 216.9375 249.078125 213.9375 252.84375 C 214.132812 248.332031 213.871094 244.230469 212.472656 239.925781 Z M 136.992188 194.425781 C 135.226562 190.953125 133.023438 187.722656 130.460938 184.785156 C 125.953125 179.613281 120.097656 174.84375 117.101562 168.574219 C 114.433594 162.96875 115.648438 157.085938 117.664062 151.507812 C 118.859375 152.507812 121.136719 158.183594 122.519531 160.046875 C 127.101562 166.207031 134.464844 170.183594 137.613281 177.441406 C 139.867188 182.632812 138.996094 189.300781 136.984375 194.425781 Z M 108.179688 41.300781 C 120.195312 37.898438 132.949219 38.980469 143.867188 45.089844 C 137.710938 37.378906 134.210938 35.3125 124.90625 32.789062 C 126.855469 32.472656 128.816406 32.328125 130.792969 32.179688 C 130.925781 32.164062 131.054688 32.148438 131.175781 32.140625 C 144.175781 31.121094 157.421875 35.734375 167.070312 44.449219 C 173.4375 50.199219 180.460938 60.164062 182.101562 68.722656 C 182.84375 72.546875 182.714844 76.558594 182.890625 80.4375 C 173.933594 66.378906 164.441406 50.996094 148.414062 44.179688 C 150.15625 45.984375 152.214844 47.539062 154.035156 49.289062 C 158.707031 53.804688 162.59375 58.699219 166.050781 64.183594 C 167.941406 67.398438 169.257812 70.59375 170.46875 74.101562 C 164.425781 70.34375 159.730469 64.808594 154.125 60.433594 C 136.140625 46.390625 120.585938 42.511719 98.117188 45.277344 C 101.335938 43.609375 104.679688 42.277344 108.179688 41.292969 Z M 307.433594 140.621094 C 315.691406 144.226562 322.742188 148.933594 328.429688 156.027344 C 323.679688 153.050781 318.261719 150.742188 312.898438 149.113281 C 302.105469 145.828125 292.34375 144.605469 284.28125 135.675781 C 281.789062 132.917969 280.140625 129.703125 278.066406 126.652344 C 280.902344 140.71875 291.527344 148.324219 300.785156 158.070312 C 317.683594 175.878906 324.816406 196.386719 324.265625 220.769531 C 322.855469 216.164062 321.808594 211.503906 319.921875 207.050781 C 310.777344 185.535156 293.261719 180.792969 277.917969 166.207031 C 280.796875 171.492188 285.28125 175.886719 289.4375 180.191406 C 291.617188 182.445312 293.847656 184.671875 295.808594 187.128906 C 302.40625 195.410156 307.179688 205.792969 309.230469 216.132812 C 302.175781 211.835938 295.074219 208.207031 288.550781 203.042969 C 278.917969 195.410156 274.078125 186.550781 272.703125 174.375 C 268.195312 192.34375 270.890625 199.585938 281.644531 214.1875 C 284.742188 218.402344 287.6875 222.535156 289.984375 227.269531 C 295.644531 238.976562 296.613281 254.734375 294 267.464844 C 293.105469 271.824219 291.625 275.988281 290.171875 280.179688 C 289.691406 275.746094 289.265625 271.246094 288.226562 266.902344 C 285.222656 254.382812 277.796875 249.339844 268.765625 241.238281 C 266.253906 238.984375 263.984375 236.542969 261.714844 234.054688 C 265.667969 245.703125 267.328125 258.589844 265.945312 270.847656 C 265.375 275.882812 264.210938 280.75 262.363281 285.46875 C 257.71875 297.320312 246.296875 313.996094 236.429688 321.886719 C 239.316406 316.226562 242.269531 310.546875 244.351562 304.527344 C 250.691406 286.167969 248.476562 267.164062 242.9375 248.972656 C 242.710938 265.933594 237.84375 282.636719 226.023438 295.230469 C 221.859375 299.664062 217.207031 303.265625 212.316406 306.847656 C 205.351562 311.945312 197.789062 317.300781 193.222656 324.808594 C 190.042969 330.039062 188.847656 335.808594 187.59375 341.707031 C 183.964844 330.242188 180.175781 321.613281 170.070312 314.402344 C 164.695312 310.570312 159.4375 307.023438 154.605469 302.492188 C 138.140625 287.0625 134.351562 270.171875 133.667969 248.613281 C 125.847656 268.570312 124.367188 288.28125 132.488281 308.554688 C 134.300781 313.09375 137.222656 317 139.09375 321.433594 C 139.125 321.515625 139.164062 321.601562 139.199219 321.683594 C 127.371094 313.070312 117.332031 300.265625 112.417969 286.484375 C 108.226562 274.753906 105.640625 260.347656 108.878906 248.160156 C 110.15625 243.359375 112.320312 238.984375 114.441406 234.515625 C 112.253906 235.941406 110.140625 237.460938 108.113281 239.105469 C 96.210938 248.761719 85.757812 262.226562 84.097656 277.902344 C 82.910156 275.355469 81.917969 272.554688 81.179688 269.847656 C 78.144531 258.710938 78.355469 244.785156 82.089844 233.875 C 83.53125 229.675781 85.613281 225.773438 87.972656 222.03125 C 91.234375 216.863281 95.457031 212.265625 98.433594 206.953125 C 102.46875 199.761719 104.210938 192.199219 104.28125 183.988281 C 104.308594 181.417969 104.25 178.839844 103.558594 176.351562 C 100.613281 189.382812 92.648438 198.859375 81.757812 206.28125 C 76.101562 210.136719 70.292969 213.464844 64.898438 217.71875 C 68.578125 195.328125 81.585938 185.699219 94.105469 168.460938 C 92.070312 170.128906 89.761719 171.492188 87.597656 172.984375 C 82.660156 176.398438 77.582031 179.839844 72.960938 183.671875 C 59.75 194.636719 51.925781 206.988281 50.347656 224.308594 C 49.3125 217.320312 49.867188 209.761719 50.84375 202.78125 C 53.257812 185.574219 62.289062 171.136719 74.238281 158.925781 C 82.789062 150.195312 89.859375 145.6875 92.902344 133.144531 C 91.101562 134.8125 89.542969 136.578125 87.554688 138.058594 C 78.574219 144.753906 67.984375 147.648438 57.554688 151.195312 C 53.878906 152.449219 50.28125 153.90625 46.660156 155.3125 C 52.289062 149.847656 59.082031 145.128906 65.867188 141.207031 C 72.539062 137.351562 86.570312 130.800781 91.453125 125.195312 C 93.871094 122.421875 95.195312 118.003906 96.886719 114.71875 C 98.480469 111.621094 100.3125 108.746094 102.265625 105.867188 C 100.125 104.492188 97.992188 103.09375 96.246094 101.230469 C 87.914062 92.355469 87.816406 75.457031 88.152344 63.964844 C 91.746094 63.304688 95.277344 62.914062 98.921875 62.710938 C 101.289062 62.46875 103.792969 62.546875 106.179688 62.582031 C 121.097656 62.785156 136.53125 66.550781 149.132812 74.710938 C 142.917969 76.996094 136.578125 78.875 130.386719 81.292969 C 133.226562 81.804688 135.976562 82.609375 138.726562 83.488281 C 137.644531 83.960938 136.570312 84.449219 135.519531 84.976562 C 119.300781 93.039062 105.347656 107.542969 99.464844 124.886719 C 104.070312 118.6875 108.097656 114.515625 114.605469 110.292969 C 113.882812 113.082031 113.386719 115.671875 113.304688 118.558594 C 110.058594 123.023438 106.691406 126.71875 103.980469 131.671875 C 101.523438 136.179688 100.191406 141.070312 97.195312 145.316406 C 90.144531 155.320312 79.867188 162.683594 71.066406 171.0625 C 80.179688 166.570312 92.867188 158.308594 100.351562 151.246094 C 102.605469 149.121094 104.582031 146.761719 106.640625 144.453125 C 105.753906 148.660156 104.640625 152.890625 104.835938 157.21875 C 105.03125 161.339844 106.308594 165.359375 107.699219 169.214844 C 112.5 182.476562 114.988281 189.308594 110.285156 203.480469 C 106.886719 213.746094 100.792969 220.921875 94.625 229.425781 C 92.210938 232.75 89.6875 236.191406 88.132812 240.023438 L 87.996094 240.375 C 93.128906 234.320312 99.921875 229.894531 105.972656 224.84375 C 115.867188 216.59375 120.757812 208.054688 121.902344 195.242188 C 128.207031 203.398438 126.042969 215.667969 123.34375 224.8125 C 121.902344 229.699219 119.976562 234.417969 118.796875 239.390625 C 117.632812 244.277344 117.273438 249.144531 117.316406 254.15625 C 119.195312 248.535156 121.554688 243.398438 124.359375 238.1875 C 128.5 230.507812 133.171875 223.402344 135.210938 214.796875 C 142.070312 224.761719 135.105469 232.15625 139.214844 239.730469 C 141.222656 235.695312 143.304688 231.734375 144.699219 227.429688 C 145.941406 229.171875 147.1875 231.09375 147.332031 233.289062 C 147.535156 236.445312 145.738281 240.113281 145.144531 243.238281 C 144.144531 248.453125 143.769531 254.332031 144.085938 259.621094 C 144.820312 271.90625 149.585938 282.398438 156.792969 292.179688 C 159.472656 295.808594 162.300781 299.265625 165.695312 302.25 C 164.726562 300.753906 163.546875 299.410156 162.554688 297.9375 C 160.210938 294.472656 158.503906 290.152344 157.371094 286.140625 C 155.332031 278.910156 155.027344 270.800781 158.84375 264.113281 L 159.015625 263.8125 C 158.625 278.632812 164.164062 288.980469 172.976562 300.394531 C 176.871094 305.4375 180.460938 310.058594 183.023438 315.957031 C 181.597656 305.730469 175.847656 296.53125 175.035156 286.484375 C 174.699219 282.300781 175.230469 278.242188 175.886719 274.125 C 176.953125 277.160156 178.027344 280.226562 179.351562 283.15625 C 182.289062 289.625 185.835938 295.796875 187.578125 302.738281 C 189.53125 298.238281 191.417969 293.730469 193.484375 289.289062 C 195.640625 284.660156 197.941406 280.195312 199.78125 275.429688 C 200.9375 289.648438 195.183594 303.175781 190.742188 316.371094 C 193.335938 313.3125 195.460938 309.628906 197.789062 306.34375 C 207.632812 292.445312 214.714844 281.40625 215.503906 263.582031 C 216.207031 265.242188 216.808594 266.925781 217.207031 268.691406 C 219.949219 280.757812 215.058594 290.632812 208.777344 300.542969 C 211.453125 298.359375 213.910156 295.675781 216.164062 293.066406 C 227.382812 280.097656 232.679688 264.355469 229.871094 247.214844 C 229.253906 243.417969 226.457031 235.808594 227 232.433594 C 227.285156 230.710938 228.222656 228.894531 229.652344 227.863281 C 230.164062 228.074219 230.199219 228.226562 230.433594 228.714844 C 231.222656 230.320312 231.679688 232.207031 232.296875 233.890625 C 233.054688 235.925781 234.011719 237.796875 235.078125 239.683594 C 238.675781 233.363281 234.730469 226.871094 236.902344 220.621094 C 237.585938 218.660156 239.269531 216.675781 240.398438 214.925781 C 241.066406 218.066406 241.773438 221.199219 242.953125 224.203125 C 244.921875 229.230469 247.835938 233.890625 250.429688 238.601562 C 253.578125 244.320312 256.269531 250.054688 258.3125 256.261719 C 259.453125 238.421875 248.085938 222.222656 249.746094 207.027344 C 250.167969 203.179688 251.550781 199.601562 253.316406 196.183594 C 253.832031 199.285156 254.238281 202.519531 255.109375 205.539062 C 259.402344 220.296875 275.933594 233.34375 289.023438 240.578125 C 281.585938 233.710938 275.511719 225.707031 270.351562 217.035156 C 262.851562 204.410156 259.230469 191.246094 264.046875 176.929688 C 265.625 172.234375 268.019531 167.554688 268.90625 162.683594 C 269.960938 156.882812 268.90625 150.894531 266.722656 145.484375 C 271.671875 149.058594 276.121094 153.425781 281 157.128906 C 285.476562 160.519531 290.257812 163.472656 294.765625 166.816406 C 298.175781 169.347656 301.273438 172.144531 304.339844 175.074219 C 300.671875 168.550781 294.726562 163.929688 289.496094 158.699219 C 286.445312 155.648438 283.652344 152.320312 281.132812 148.820312 C 276.578125 142.492188 273.304688 135.511719 269.589844 128.695312 C 266.113281 122.324219 262.273438 116.152344 258.238281 110.121094 C 263.746094 112.53125 267.765625 117.363281 271.402344 121.96875 C 270.464844 117.632812 269.125 113.71875 267.007812 109.804688 C 260.875 98.480469 248.648438 87.3125 236.265625 83.632812 C 239.285156 82.570312 242.277344 82.074219 245.476562 81.957031 C 238.796875 79.070312 233.125 75.335938 225.835938 73.890625 C 242.320312 63.71875 264.542969 61.613281 283.351562 64.46875 C 284.90625 70.375 285.914062 75.847656 285.542969 82.015625 C 284.957031 91.664062 279.992188 101.394531 272.753906 107.753906 C 275.421875 112.417969 277.992188 117.507812 281.035156 121.910156 C 287.566406 131.339844 297.222656 136.203125 307.410156 140.605469 Z M 152.964844 104.542969 C 155.386719 105.003906 157.804688 105.84375 159.992188 106.992188 C 169.136719 111.757812 168.730469 117.199219 170.738281 126.035156 C 171.40625 128.957031 172.773438 131.890625 173.691406 134.765625 C 172.738281 134.0625 171.992188 132.300781 171.390625 131.234375 C 166.078125 121.773438 162.886719 110.300781 152.964844 104.542969 Z M 201.601562 134.308594 L 201.441406 134.171875 C 202.433594 131.25 203.472656 128.246094 204.148438 125.238281 C 204.996094 121.453125 205.058594 117.769531 206.949219 114.246094 C 209.941406 108.683594 215.613281 106.355469 221.355469 104.605469 L 221.507812 104.625 L 221.558594 104.808594 C 220.265625 105.640625 218.90625 106.445312 217.75 107.460938 C 209.894531 114.34375 207.242188 125.644531 201.691406 134.25 L 201.59375 134.316406 Z M 212.601562 126.101562 C 209.324219 132.730469 209.023438 139.238281 208.347656 146.421875 C 207.800781 152.207031 206.769531 156.46875 208.714844 162.113281 C 208.519531 155.980469 210.203125 150.878906 212.925781 145.4375 C 213.9375 143.417969 215.066406 141.402344 215.78125 139.253906 C 216.5625 136.929688 216.628906 134.234375 217.214844 131.8125 C 219.898438 132.894531 223.398438 132.902344 226.089844 131.84375 C 229.074219 130.671875 230.539062 128.363281 231.777344 125.5625 C 233.5 125.605469 235.226562 125.578125 236.910156 125.984375 C 235.015625 130.738281 231.882812 134.730469 227.113281 136.796875 C 225.472656 137.511719 223.78125 138.011719 222.003906 138.261719 C 225.390625 139.222656 228.59375 139.394531 231.785156 137.636719 C 234.632812 136.066406 236.933594 133.234375 237.746094 130.070312 C 238.121094 128.621094 238.269531 127.476562 237.871094 126.027344 C 237.925781 125.984375 237.976562 125.929688 238.03125 125.898438 C 239.804688 124.796875 246.101562 125.652344 248.121094 126.066406 C 245.621094 123.832031 243.019531 121.773438 240.066406 120.167969 C 235.046875 117.453125 227.789062 115.019531 222.101562 116.816406 C 217.652344 118.226562 214.601562 122.066406 212.609375 126.109375 Z M 221.402344 124.984375 C 221.8125 124.203125 222.210938 123.9375 222.957031 123.480469 C 224 123.421875 224.707031 123.351562 225.59375 123.96875 C 225.902344 124.488281 226.128906 124.734375 225.886719 125.359375 C 225.609375 126.082031 224.910156 126.523438 224.292969 126.921875 C 223.453125 126.921875 222.476562 126.921875 221.828125 126.3125 C 221.347656 125.855469 221.394531 125.585938 221.410156 124.984375 Z M 166.160156 162.976562 C 166.679688 161.570312 167.167969 160.136719 167.417969 158.65625 C 168.09375 154.71875 167.363281 151.050781 166.957031 147.144531 C 166.003906 138.042969 165.847656 130.515625 160.179688 122.632812 C 157.875 119.4375 154.621094 116.792969 150.621094 116.222656 C 142.070312 115.003906 131.820312 120.761719 125.164062 125.613281 L 125.484375 125.578125 C 127.371094 125.390625 135.277344 125 136.382812 125.90625 C 135.902344 128.972656 136.464844 131.664062 138.289062 134.21875 C 140.070312 136.707031 142.730469 138.605469 145.789062 139.082031 C 148.269531 139.472656 150.652344 138.921875 152.945312 138.011719 C 148.171875 137.5625 144.160156 136.1875 141.011719 132.386719 C 139.507812 130.574219 138.710938 128.664062 137.839844 126.507812 C 138.945312 125.285156 141.101562 125.472656 142.679688 125.335938 C 143.542969 127.988281 145.136719 130.703125 147.691406 132.015625 C 150.765625 133.59375 154.0625 132.617188 157.144531 131.648438 C 158.550781 134.21875 158.398438 137.105469 159.414062 139.800781 C 160.121094 141.671875 161.1875 143.4375 162.113281 145.203125 C 165.289062 151.246094 167.027344 156.144531 166.148438 162.984375 Z M 153.238281 126.132812 C 152.792969 126.703125 152.433594 126.898438 151.808594 127.222656 C 150.75 127.042969 149.863281 126.824219 149.007812 126.148438 C 148.472656 125.71875 148.359375 125.53125 148.316406 124.855469 C 148.910156 124.253906 149.449219 124.230469 150.253906 124.007812 C 150.367188 124.015625 150.488281 124.027344 150.605469 124.042969 C 151.546875 124.164062 152.660156 124.398438 153.214844 125.253906 C 153.433594 125.585938 153.304688 125.765625 153.246094 126.132812 Z M 187.414062 178.871094 C 188.195312 178.101562 189.074219 177.398438 190.003906 176.804688 C 196.484375 172.699219 203.523438 173.429688 210.640625 174.960938 C 212.144531 172.550781 212.242188 170.492188 211.746094 167.75 C 212.503906 168.648438 212.960938 169.476562 213.292969 170.605469 C 214.375 174.269531 213.925781 178.75 212.054688 182.0625 C 209.371094 186.820312 204.679688 187.96875 199.847656 189.40625 C 201.570312 186.796875 202.605469 185.078125 202.734375 181.882812 C 192.875 189.496094 193.328125 197.46875 187.496094 207.148438 C 186.242188 205.417969 185.414062 203.382812 184.558594 201.429688 C 181.460938 194.378906 179.085938 186.933594 172.511719 182.339844 C 172.21875 182.230469 172.082031 182.320312 171.789062 182.394531 C 171.78125 182.515625 171.746094 182.640625 171.753906 182.761719 C 171.941406 185.136719 173.925781 187.976562 175.449219 189.726562 C 172.617188 188.863281 169.769531 188.136719 167.222656 186.558594 C 164.207031 184.6875 162.195312 181.769531 161.421875 178.3125 C 160.519531 174.292969 161.519531 170.695312 163.710938 167.296875 C 163.507812 168.425781 163.261719 169.574219 163.269531 170.730469 C 163.269531 171.910156 163.328125 173.640625 164.261719 174.488281 C 164.914062 175.074219 168.84375 173.957031 169.917969 173.859375 C 176.652344 173.210938 182.175781 174.527344 187.421875 178.855469 Z M 270.378906 104.417969 C 266.878906 99.222656 262.128906 94.738281 257.289062 90.792969 C 254.390625 88.476562 251.257812 86.523438 248.113281 84.578125 C 251.257812 82.976562 258.167969 80.085938 261.625 79.679688 C 255.742188 76.734375 249.910156 74.832031 243.375 74.082031 C 250.675781 72.308594 258.070312 71.34375 265.5625 70.96875 C 269.441406 70.75 273.296875 70.96875 277.171875 71.179688 C 278.464844 82.390625 276.804688 94.871094 270.386719 104.410156 Z M 104.113281 100.996094 C 96.609375 93.070312 95.539062 81.429688 95.855469 71.042969 C 99.085938 70.519531 102.371094 70.414062 105.632812 70.253906 C 114.824219 69.820312 124.207031 72.269531 133.171875 74.019531 C 126.027344 74.816406 120.820312 75.492188 115.5 80.738281 C 119.023438 81.84375 122.164062 83.382812 125.433594 85.058594 C 123.523438 86.3125 121.667969 87.621094 119.8125 88.953125 C 114.507812 92.941406 109.902344 97.449219 105.273438 102.183594 C 104.882812 101.792969 104.492188 101.394531 104.113281 100.996094 Z M 104.113281 100.996094 " fill-opacity="1" fill-rule="nonzero"/></g></svg>